<?xml version="1.0" encoding="utf-8" standalone="no"?>
<!DOCTYPE svg PUBLIC "-//W3C//DTD SVG 1.1//EN"
  "http://www.w3.org/Graphics/SVG/1.1/DTD/svg11.dtd">
<!-- Created with matplotlib (http://matplotlib.org/) -->
<svg height="288pt" version="1.1" viewBox="0 0 432 288" width="432pt" xmlns="http://www.w3.org/2000/svg" xmlns:xlink="http://www.w3.org/1999/xlink">
 <defs>
  <style type="text/css">
*{stroke-linecap:butt;stroke-linejoin:round;}
  </style>
 </defs>
 <g id="figure_1">
  <g id="patch_1">
   <path d="M 0 288 
L 432 288 
L 432 0 
L 0 0 
z
" style="fill:#ffffff;"/>
  </g>
  <g id="axes_1">
   <g id="patch_2">
    <path d="M 54 252 
L 388.8 252 
L 388.8 34.56 
L 54 34.56 
z
" style="fill:#ffffff;"/>
   </g>
   <g id="matplotlib.axis_1">
    <g id="xtick_1">
     <g id="line2d_1">
      <defs>
       <path d="M 0 0 
L 0 3.5 
" id="ma67679407d" style="stroke:#000000;stroke-width:0.8;"/>
      </defs>
      <g>
       <use style="stroke:#000000;stroke-width:0.8;" x="54" xlink:href="#ma67679407d" y="252"/>
      </g>
     </g>
     <g id="text_1">
      <!-- 0 -->
      <defs>
       <path d="M 31.78125 66.40625 
Q 24.171875 66.40625 20.328125 58.90625 
Q 16.5 51.421875 16.5 36.375 
Q 16.5 21.390625 20.328125 13.890625 
Q 24.171875 6.390625 31.78125 6.390625 
Q 39.453125 6.390625 43.28125 13.890625 
Q 47.125 21.390625 47.125 36.375 
Q 47.125 51.421875 43.28125 58.90625 
Q 39.453125 66.40625 31.78125 66.40625 
z
M 31.78125 74.21875 
Q 44.046875 74.21875 50.515625 64.515625 
Q 56.984375 54.828125 56.984375 36.375 
Q 56.984375 17.96875 50.515625 8.265625 
Q 44.046875 -1.421875 31.78125 -1.421875 
Q 19.53125 -1.421875 13.0625 8.265625 
Q 6.59375 17.96875 6.59375 36.375 
Q 6.59375 54.828125 13.0625 64.515625 
Q 19.53125 74.21875 31.78125 74.21875 
z
" id="DejaVuSans-30"/>
      </defs>
      <g transform="translate(50.81875 266.598437)scale(0.1 -0.1)">
       <use xlink:href="#DejaVuSans-30"/>
      </g>
     </g>
    </g>
    <g id="xtick_2">
     <g id="line2d_2">
      <g>
       <use style="stroke:#000000;stroke-width:0.8;" x="98.64" xlink:href="#ma67679407d" y="252"/>
      </g>
     </g>
     <g id="text_2">
      <!-- 2 -->
      <defs>
       <path d="M 19.1875 8.296875 
L 53.609375 8.296875 
L 53.609375 0 
L 7.328125 0 
L 7.328125 8.296875 
Q 12.9375 14.109375 22.625 23.890625 
Q 32.328125 33.6875 34.8125 36.53125 
Q 39.546875 41.84375 41.421875 45.53125 
Q 43.3125 49.21875 43.3125 52.78125 
Q 43.3125 58.59375 39.234375 62.25 
Q 35.15625 65.921875 28.609375 65.921875 
Q 23.96875 65.921875 18.8125 64.3125 
Q 13.671875 62.703125 7.8125 59.421875 
L 7.8125 69.390625 
Q 13.765625 71.78125 18.9375 73 
Q 24.125 74.21875 28.421875 74.21875 
Q 39.75 74.21875 46.484375 68.546875 
Q 53.21875 62.890625 53.21875 53.421875 
Q 53.21875 48.921875 51.53125 44.890625 
Q 49.859375 40.875 45.40625 35.40625 
Q 44.1875 33.984375 37.640625 27.21875 
Q 31.109375 20.453125 19.1875 8.296875 
z
" id="DejaVuSans-32"/>
      </defs>
      <g transform="translate(95.45875 266.598437)scale(0.1 -0.1)">
       <use xlink:href="#DejaVuSans-32"/>
      </g>
     </g>
    </g>
    <g id="xtick_3">
     <g id="line2d_3">
      <g>
       <use style="stroke:#000000;stroke-width:0.8;" x="143.28" xlink:href="#ma67679407d" y="252"/>
      </g>
     </g>
     <g id="text_3">
      <!-- 4 -->
      <defs>
       <path d="M 37.796875 64.3125 
L 12.890625 25.390625 
L 37.796875 25.390625 
z
M 35.203125 72.90625 
L 47.609375 72.90625 
L 47.609375 25.390625 
L 58.015625 25.390625 
L 58.015625 17.1875 
L 47.609375 17.1875 
L 47.609375 0 
L 37.796875 0 
L 37.796875 17.1875 
L 4.890625 17.1875 
L 4.890625 26.703125 
z
" id="DejaVuSans-34"/>
      </defs>
      <g transform="translate(140.09875 266.598437)scale(0.1 -0.1)">
       <use xlink:href="#DejaVuSans-34"/>
      </g>
     </g>
    </g>
    <g id="xtick_4">
     <g id="line2d_4">
      <g>
       <use style="stroke:#000000;stroke-width:0.8;" x="187.92" xlink:href="#ma67679407d" y="252"/>
      </g>
     </g>
     <g id="text_4">
      <!-- 6 -->
      <defs>
       <path d="M 33.015625 40.375 
Q 26.375 40.375 22.484375 35.828125 
Q 18.609375 31.296875 18.609375 23.390625 
Q 18.609375 15.53125 22.484375 10.953125 
Q 26.375 6.390625 33.015625 6.390625 
Q 39.65625 6.390625 43.53125 10.953125 
Q 47.40625 15.53125 47.40625 23.390625 
Q 47.40625 31.296875 43.53125 35.828125 
Q 39.65625 40.375 33.015625 40.375 
z
M 52.59375 71.296875 
L 52.59375 62.3125 
Q 48.875 64.0625 45.09375 64.984375 
Q 41.3125 65.921875 37.59375 65.921875 
Q 27.828125 65.921875 22.671875 59.328125 
Q 17.53125 52.734375 16.796875 39.40625 
Q 19.671875 43.65625 24.015625 45.921875 
Q 28.375 48.1875 33.59375 48.1875 
Q 44.578125 48.1875 50.953125 41.515625 
Q 57.328125 34.859375 57.328125 23.390625 
Q 57.328125 12.15625 50.6875 5.359375 
Q 44.046875 -1.421875 33.015625 -1.421875 
Q 20.359375 -1.421875 13.671875 8.265625 
Q 6.984375 17.96875 6.984375 36.375 
Q 6.984375 53.65625 15.1875 63.9375 
Q 23.390625 74.21875 37.203125 74.21875 
Q 40.921875 74.21875 44.703125 73.484375 
Q 48.484375 72.75 52.59375 71.296875 
z
" id="DejaVuSans-36"/>
      </defs>
      <g transform="translate(184.73875 266.598437)scale(0.1 -0.1)">
       <use xlink:href="#DejaVuSans-36"/>
      </g>
     </g>
    </g>
    <g id="xtick_5">
     <g id="line2d_5">
      <g>
       <use style="stroke:#000000;stroke-width:0.8;" x="232.56" xlink:href="#ma67679407d" y="252"/>
      </g>
     </g>
     <g id="text_5">
      <!-- 8 -->
      <defs>
       <path d="M 31.78125 34.625 
Q 24.75 34.625 20.71875 30.859375 
Q 16.703125 27.09375 16.703125 20.515625 
Q 16.703125 13.921875 20.71875 10.15625 
Q 24.75 6.390625 31.78125 6.390625 
Q 38.8125 6.390625 42.859375 10.171875 
Q 46.921875 13.96875 46.921875 20.515625 
Q 46.921875 27.09375 42.890625 30.859375 
Q 38.875 34.625 31.78125 34.625 
z
M 21.921875 38.8125 
Q 15.578125 40.375 12.03125 44.71875 
Q 8.5 49.078125 8.5 55.328125 
Q 8.5 64.0625 14.71875 69.140625 
Q 20.953125 74.21875 31.78125 74.21875 
Q 42.671875 74.21875 48.875 69.140625 
Q 55.078125 64.0625 55.078125 55.328125 
Q 55.078125 49.078125 51.53125 44.71875 
Q 48 40.375 41.703125 38.8125 
Q 48.828125 37.15625 52.796875 32.3125 
Q 56.78125 27.484375 56.78125 20.515625 
Q 56.78125 9.90625 50.3125 4.234375 
Q 43.84375 -1.421875 31.78125 -1.421875 
Q 19.734375 -1.421875 13.25 4.234375 
Q 6.78125 9.90625 6.78125 20.515625 
Q 6.78125 27.484375 10.78125 32.3125 
Q 14.796875 37.15625 21.921875 38.8125 
z
M 18.3125 54.390625 
Q 18.3125 48.734375 21.84375 45.5625 
Q 25.390625 42.390625 31.78125 42.390625 
Q 38.140625 42.390625 41.71875 45.5625 
Q 45.3125 48.734375 45.3125 54.390625 
Q 45.3125 60.0625 41.71875 63.234375 
Q 38.140625 66.40625 31.78125 66.40625 
Q 25.390625 66.40625 21.84375 63.234375 
Q 18.3125 60.0625 18.3125 54.390625 
z
" id="DejaVuSans-38"/>
      </defs>
      <g transform="translate(229.37875 266.598437)scale(0.1 -0.1)">
       <use xlink:href="#DejaVuSans-38"/>
      </g>
     </g>
    </g>
    <g id="xtick_6">
     <g id="line2d_6">
      <g>
       <use style="stroke:#000000;stroke-width:0.8;" x="277.2" xlink:href="#ma67679407d" y="252"/>
      </g>
     </g>
     <g id="text_6">
      <!-- 10 -->
      <defs>
       <path d="M 12.40625 8.296875 
L 28.515625 8.296875 
L 28.515625 63.921875 
L 10.984375 60.40625 
L 10.984375 69.390625 
L 28.421875 72.90625 
L 38.28125 72.90625 
L 38.28125 8.296875 
L 54.390625 8.296875 
L 54.390625 0 
L 12.40625 0 
z
" id="DejaVuSans-31"/>
      </defs>
      <g transform="translate(270.8375 266.598437)scale(0.1 -0.1)">
       <use xlink:href="#DejaVuSans-31"/>
       <use x="63.623047" xlink:href="#DejaVuSans-30"/>
      </g>
     </g>
    </g>
    <g id="xtick_7">
     <g id="line2d_7">
      <g>
       <use style="stroke:#000000;stroke-width:0.8;" x="321.84" xlink:href="#ma67679407d" y="252"/>
      </g>
     </g>
     <g id="text_7">
      <!-- 12 -->
      <g transform="translate(315.4775 266.598437)scale(0.1 -0.1)">
       <use xlink:href="#DejaVuSans-31"/>
       <use x="63.623047" xlink:href="#DejaVuSans-32"/>
      </g>
     </g>
    </g>
    <g id="xtick_8">
     <g id="line2d_8">
      <g>
       <use style="stroke:#000000;stroke-width:0.8;" x="366.48" xlink:href="#ma67679407d" y="252"/>
      </g>
     </g>
     <g id="text_8">
      <!-- 14 -->
      <g transform="translate(360.1175 266.598437)scale(0.1 -0.1)">
       <use xlink:href="#DejaVuSans-31"/>
       <use x="63.623047" xlink:href="#DejaVuSans-34"/>
      </g>
     </g>
    </g>
    <g id="text_9">
     <!-- time -->
     <defs>
      <path d="M 18.3125 70.21875 
L 18.3125 54.6875 
L 36.8125 54.6875 
L 36.8125 47.703125 
L 18.3125 47.703125 
L 18.3125 18.015625 
Q 18.3125 11.328125 20.140625 9.421875 
Q 21.96875 7.515625 27.59375 7.515625 
L 36.8125 7.515625 
L 36.8125 0 
L 27.59375 0 
Q 17.1875 0 13.234375 3.875 
Q 9.28125 7.765625 9.28125 18.015625 
L 9.28125 47.703125 
L 2.6875 47.703125 
L 2.6875 54.6875 
L 9.28125 54.6875 
L 9.28125 70.21875 
z
" id="DejaVuSans-74"/>
      <path d="M 9.421875 54.6875 
L 18.40625 54.6875 
L 18.40625 0 
L 9.421875 0 
z
M 9.421875 75.984375 
L 18.40625 75.984375 
L 18.40625 64.59375 
L 9.421875 64.59375 
z
" id="DejaVuSans-69"/>
      <path d="M 52 44.1875 
Q 55.375 50.25 60.0625 53.125 
Q 64.75 56 71.09375 56 
Q 79.640625 56 84.28125 50.015625 
Q 88.921875 44.046875 88.921875 33.015625 
L 88.921875 0 
L 79.890625 0 
L 79.890625 32.71875 
Q 79.890625 40.578125 77.09375 44.375 
Q 74.3125 48.1875 68.609375 48.1875 
Q 61.625 48.1875 57.5625 43.546875 
Q 53.515625 38.921875 53.515625 30.90625 
L 53.515625 0 
L 44.484375 0 
L 44.484375 32.71875 
Q 44.484375 40.625 41.703125 44.40625 
Q 38.921875 48.1875 33.109375 48.1875 
Q 26.21875 48.1875 22.15625 43.53125 
Q 18.109375 38.875 18.109375 30.90625 
L 18.109375 0 
L 9.078125 0 
L 9.078125 54.6875 
L 18.109375 54.6875 
L 18.109375 46.1875 
Q 21.1875 51.21875 25.484375 53.609375 
Q 29.78125 56 35.6875 56 
Q 41.65625 56 45.828125 52.96875 
Q 50 49.953125 52 44.1875 
z
" id="DejaVuSans-6d"/>
      <path d="M 56.203125 29.59375 
L 56.203125 25.203125 
L 14.890625 25.203125 
Q 15.484375 15.921875 20.484375 11.0625 
Q 25.484375 6.203125 34.421875 6.203125 
Q 39.59375 6.203125 44.453125 7.46875 
Q 49.3125 8.734375 54.109375 11.28125 
L 54.109375 2.78125 
Q 49.265625 0.734375 44.1875 -0.34375 
Q 39.109375 -1.421875 33.890625 -1.421875 
Q 20.796875 -1.421875 13.15625 6.1875 
Q 5.515625 13.8125 5.515625 26.8125 
Q 5.515625 40.234375 12.765625 48.109375 
Q 20.015625 56 32.328125 56 
Q 43.359375 56 49.78125 48.890625 
Q 56.203125 41.796875 56.203125 29.59375 
z
M 47.21875 32.234375 
Q 47.125 39.59375 43.09375 43.984375 
Q 39.0625 48.390625 32.421875 48.390625 
Q 24.90625 48.390625 20.390625 44.140625 
Q 15.875 39.890625 15.1875 32.171875 
z
" id="DejaVuSans-65"/>
     </defs>
     <g transform="translate(210.103906 280.276563)scale(0.1 -0.1)">
      <use xlink:href="#DejaVuSans-74"/>
      <use x="39.208984" xlink:href="#DejaVuSans-69"/>
      <use x="66.992188" xlink:href="#DejaVuSans-6d"/>
      <use x="164.404297" xlink:href="#DejaVuSans-65"/>
     </g>
    </g>
   </g>
   <g id="matplotlib.axis_2">
    <g id="ytick_1">
     <g id="line2d_9">
      <defs>
       <path d="M 0 0 
L -3.5 0 
" id="mfd3979b1ae" style="stroke:#000000;stroke-width:0.8;"/>
      </defs>
      <g>
       <use style="stroke:#000000;stroke-width:0.8;" x="54" xlink:href="#mfd3979b1ae" y="252"/>
      </g>
     </g>
     <g id="text_10">
      <!-- 0.0 -->
      <defs>
       <path d="M 10.6875 12.40625 
L 21 12.40625 
L 21 0 
L 10.6875 0 
z
" id="DejaVuSans-2e"/>
      </defs>
      <g transform="translate(31.096875 255.799219)scale(0.1 -0.1)">
       <use xlink:href="#DejaVuSans-30"/>
       <use x="63.623047" xlink:href="#DejaVuSans-2e"/>
       <use x="95.410156" xlink:href="#DejaVuSans-30"/>
      </g>
     </g>
    </g>
    <g id="ytick_2">
     <g id="line2d_10">
      <g>
       <use style="stroke:#000000;stroke-width:0.8;" x="54" xlink:href="#mfd3979b1ae" y="208.512"/>
      </g>
     </g>
     <g id="text_11">
      <!-- 0.2 -->
      <g transform="translate(31.096875 212.311219)scale(0.1 -0.1)">
       <use xlink:href="#DejaVuSans-30"/>
       <use x="63.623047" xlink:href="#DejaVuSans-2e"/>
       <use x="95.410156" xlink:href="#DejaVuSans-32"/>
      </g>
     </g>
    </g>
    <g id="ytick_3">
     <g id="line2d_11">
      <g>
       <use style="stroke:#000000;stroke-width:0.8;" x="54" xlink:href="#mfd3979b1ae" y="165.024"/>
      </g>
     </g>
     <g id="text_12">
      <!-- 0.4 -->
      <g transform="translate(31.096875 168.823219)scale(0.1 -0.1)">
       <use xlink:href="#DejaVuSans-30"/>
       <use x="63.623047" xlink:href="#DejaVuSans-2e"/>
       <use x="95.410156" xlink:href="#DejaVuSans-34"/>
      </g>
     </g>
    </g>
    <g id="ytick_4">
     <g id="line2d_12">
      <g>
       <use style="stroke:#000000;stroke-width:0.8;" x="54" xlink:href="#mfd3979b1ae" y="121.536"/>
      </g>
     </g>
     <g id="text_13">
      <!-- 0.6 -->
      <g transform="translate(31.096875 125.335219)scale(0.1 -0.1)">
       <use xlink:href="#DejaVuSans-30"/>
       <use x="63.623047" xlink:href="#DejaVuSans-2e"/>
       <use x="95.410156" xlink:href="#DejaVuSans-36"/>
      </g>
     </g>
    </g>
    <g id="ytick_5">
     <g id="line2d_13">
      <g>
       <use style="stroke:#000000;stroke-width:0.8;" x="54" xlink:href="#mfd3979b1ae" y="78.048"/>
      </g>
     </g>
     <g id="text_14">
      <!-- 0.8 -->
      <g transform="translate(31.096875 81.847219)scale(0.1 -0.1)">
       <use xlink:href="#DejaVuSans-30"/>
       <use x="63.623047" xlink:href="#DejaVuSans-2e"/>
       <use x="95.410156" xlink:href="#DejaVuSans-38"/>
      </g>
     </g>
    </g>
    <g id="ytick_6">
     <g id="line2d_14">
      <g>
       <use style="stroke:#000000;stroke-width:0.8;" x="54" xlink:href="#mfd3979b1ae" y="34.56"/>
      </g>
     </g>
     <g id="text_15">
      <!-- 1.0 -->
      <g transform="translate(31.096875 38.359219)scale(0.1 -0.1)">
       <use xlink:href="#DejaVuSans-31"/>
       <use x="63.623047" xlink:href="#DejaVuSans-2e"/>
       <use x="95.410156" xlink:href="#DejaVuSans-30"/>
      </g>
     </g>
    </g>
    <g id="text_16">
     <!-- expectation value -->
     <defs>
      <path d="M 54.890625 54.6875 
L 35.109375 28.078125 
L 55.90625 0 
L 45.3125 0 
L 29.390625 21.484375 
L 13.484375 0 
L 2.875 0 
L 24.125 28.609375 
L 4.6875 54.6875 
L 15.28125 54.6875 
L 29.78125 35.203125 
L 44.28125 54.6875 
z
" id="DejaVuSans-78"/>
      <path d="M 18.109375 8.203125 
L 18.109375 -20.796875 
L 9.078125 -20.796875 
L 9.078125 54.6875 
L 18.109375 54.6875 
L 18.109375 46.390625 
Q 20.953125 51.265625 25.265625 53.625 
Q 29.59375 56 35.59375 56 
Q 45.5625 56 51.78125 48.09375 
Q 58.015625 40.1875 58.015625 27.296875 
Q 58.015625 14.40625 51.78125 6.484375 
Q 45.5625 -1.421875 35.59375 -1.421875 
Q 29.59375 -1.421875 25.265625 0.953125 
Q 20.953125 3.328125 18.109375 8.203125 
z
M 48.6875 27.296875 
Q 48.6875 37.203125 44.609375 42.84375 
Q 40.53125 48.484375 33.40625 48.484375 
Q 26.265625 48.484375 22.1875 42.84375 
Q 18.109375 37.203125 18.109375 27.296875 
Q 18.109375 17.390625 22.1875 11.75 
Q 26.265625 6.109375 33.40625 6.109375 
Q 40.53125 6.109375 44.609375 11.75 
Q 48.6875 17.390625 48.6875 27.296875 
z
" id="DejaVuSans-70"/>
      <path d="M 48.78125 52.59375 
L 48.78125 44.1875 
Q 44.96875 46.296875 41.140625 47.34375 
Q 37.3125 48.390625 33.40625 48.390625 
Q 24.65625 48.390625 19.8125 42.84375 
Q 14.984375 37.3125 14.984375 27.296875 
Q 14.984375 17.28125 19.8125 11.734375 
Q 24.65625 6.203125 33.40625 6.203125 
Q 37.3125 6.203125 41.140625 7.25 
Q 44.96875 8.296875 48.78125 10.40625 
L 48.78125 2.09375 
Q 45.015625 0.34375 40.984375 -0.53125 
Q 36.96875 -1.421875 32.421875 -1.421875 
Q 20.0625 -1.421875 12.78125 6.34375 
Q 5.515625 14.109375 5.515625 27.296875 
Q 5.515625 40.671875 12.859375 48.328125 
Q 20.21875 56 33.015625 56 
Q 37.15625 56 41.109375 55.140625 
Q 45.0625 54.296875 48.78125 52.59375 
z
" id="DejaVuSans-63"/>
      <path d="M 34.28125 27.484375 
Q 23.390625 27.484375 19.1875 25 
Q 14.984375 22.515625 14.984375 16.5 
Q 14.984375 11.71875 18.140625 8.90625 
Q 21.296875 6.109375 26.703125 6.109375 
Q 34.1875 6.109375 38.703125 11.40625 
Q 43.21875 16.703125 43.21875 25.484375 
L 43.21875 27.484375 
z
M 52.203125 31.203125 
L 52.203125 0 
L 43.21875 0 
L 43.21875 8.296875 
Q 40.140625 3.328125 35.546875 0.953125 
Q 30.953125 -1.421875 24.3125 -1.421875 
Q 15.921875 -1.421875 10.953125 3.296875 
Q 6 8.015625 6 15.921875 
Q 6 25.140625 12.171875 29.828125 
Q 18.359375 34.515625 30.609375 34.515625 
L 43.21875 34.515625 
L 43.21875 35.40625 
Q 43.21875 41.609375 39.140625 45 
Q 35.0625 48.390625 27.6875 48.390625 
Q 23 48.390625 18.546875 47.265625 
Q 14.109375 46.140625 10.015625 43.890625 
L 10.015625 52.203125 
Q 14.9375 54.109375 19.578125 55.046875 
Q 24.21875 56 28.609375 56 
Q 40.484375 56 46.34375 49.84375 
Q 52.203125 43.703125 52.203125 31.203125 
z
" id="DejaVuSans-61"/>
      <path d="M 30.609375 48.390625 
Q 23.390625 48.390625 19.1875 42.75 
Q 14.984375 37.109375 14.984375 27.296875 
Q 14.984375 17.484375 19.15625 11.84375 
Q 23.34375 6.203125 30.609375 6.203125 
Q 37.796875 6.203125 41.984375 11.859375 
Q 46.1875 17.53125 46.1875 27.296875 
Q 46.1875 37.015625 41.984375 42.703125 
Q 37.796875 48.390625 30.609375 48.390625 
z
M 30.609375 56 
Q 42.328125 56 49.015625 48.375 
Q 55.71875 40.765625 55.71875 27.296875 
Q 55.71875 13.875 49.015625 6.21875 
Q 42.328125 -1.421875 30.609375 -1.421875 
Q 18.84375 -1.421875 12.171875 6.21875 
Q 5.515625 13.875 5.515625 27.296875 
Q 5.515625 40.765625 12.171875 48.375 
Q 18.84375 56 30.609375 56 
z
" id="DejaVuSans-6f"/>
      <path d="M 54.890625 33.015625 
L 54.890625 0 
L 45.90625 0 
L 45.90625 32.71875 
Q 45.90625 40.484375 42.875 44.328125 
Q 39.84375 48.1875 33.796875 48.1875 
Q 26.515625 48.1875 22.3125 43.546875 
Q 18.109375 38.921875 18.109375 30.90625 
L 18.109375 0 
L 9.078125 0 
L 9.078125 54.6875 
L 18.109375 54.6875 
L 18.109375 46.1875 
Q 21.34375 51.125 25.703125 53.5625 
Q 30.078125 56 35.796875 56 
Q 45.21875 56 50.046875 50.171875 
Q 54.890625 44.34375 54.890625 33.015625 
z
" id="DejaVuSans-6e"/>
      <path id="DejaVuSans-20"/>
      <path d="M 2.984375 54.6875 
L 12.5 54.6875 
L 29.59375 8.796875 
L 46.6875 54.6875 
L 56.203125 54.6875 
L 35.6875 0 
L 23.484375 0 
z
" id="DejaVuSans-76"/>
      <path d="M 9.421875 75.984375 
L 18.40625 75.984375 
L 18.40625 0 
L 9.421875 0 
z
" id="DejaVuSans-6c"/>
      <path d="M 8.5 21.578125 
L 8.5 54.6875 
L 17.484375 54.6875 
L 17.484375 21.921875 
Q 17.484375 14.15625 20.5 10.265625 
Q 23.53125 6.390625 29.59375 6.390625 
Q 36.859375 6.390625 41.078125 11.03125 
Q 45.3125 15.671875 45.3125 23.6875 
L 45.3125 54.6875 
L 54.296875 54.6875 
L 54.296875 0 
L 45.3125 0 
L 45.3125 8.40625 
Q 42.046875 3.421875 37.71875 1 
Q 33.40625 -1.421875 27.6875 -1.421875 
Q 18.265625 -1.421875 13.375 4.4375 
Q 8.5 10.296875 8.5 21.578125 
z
M 31.109375 56 
z
" id="DejaVuSans-75"/>
     </defs>
     <g transform="translate(25.017187 188.163594)rotate(-90)scale(0.1 -0.1)">
      <use xlink:href="#DejaVuSans-65"/>
      <use x="61.507812" xlink:href="#DejaVuSans-78"/>
      <use x="120.6875" xlink:href="#DejaVuSans-70"/>
      <use x="184.164062" xlink:href="#DejaVuSans-65"/>
      <use x="245.6875" xlink:href="#DejaVuSans-63"/>
      <use x="300.667969" xlink:href="#DejaVuSans-74"/>
      <use x="339.876953" xlink:href="#DejaVuSans-61"/>
      <use x="401.15625" xlink:href="#DejaVuSans-74"/>
      <use x="440.365234" xlink:href="#DejaVuSans-69"/>
      <use x="468.148438" xlink:href="#DejaVuSans-6f"/>
      <use x="529.330078" xlink:href="#DejaVuSans-6e"/>
      <use x="592.708984" xlink:href="#DejaVuSans-20"/>
      <use x="624.496094" xlink:href="#DejaVuSans-76"/>
      <use x="683.675781" xlink:href="#DejaVuSans-61"/>
      <use x="744.955078" xlink:href="#DejaVuSans-6c"/>
      <use x="772.738281" xlink:href="#DejaVuSans-75"/>
      <use x="836.117188" xlink:href="#DejaVuSans-65"/>
     </g>
    </g>
   </g>
   <g id="line2d_15">
    <path clip-path="url(#pca3fdf5e7f)" d="M 54 34.56 
L 58.66488 34.670894 
L 60.40584 34.951392 
L 61.43256 35.262331 
L 62.74944 35.892907 
L 63.79848 36.634378 
L 64.69128 37.467173 
L 65.80728 38.821824 
L 66.81168 40.378694 
L 67.97232 42.633547 
L 69.04368 45.190642 
L 70.24896 48.665333 
L 71.4096 52.644485 
L 72.72648 57.9348 
L 74.06568 64.157933 
L 75.69504 72.80987 
L 77.63688 84.418992 
L 80.49384 102.92531 
L 82.83744 117.706882 
L 84.42216 126.46319 
L 85.60512 131.897016 
L 86.60952 135.543485 
L 87.43536 137.765722 
L 88.10496 138.994258 
L 88.64064 139.585694 
L 89.154 139.805309 
L 89.55576 139.737902 
L 90.00216 139.407394 
L 90.42624 138.844224 
L 91.00656 137.674397 
L 91.67616 135.752227 
L 92.41272 132.945077 
L 93.2832 128.735438 
L 94.30992 122.634072 
L 95.6268 113.325466 
L 97.61328 97.391462 
L 99.88992 79.463534 
L 101.05056 71.892274 
L 101.988 67.125989 
L 102.72456 64.436256 
L 103.30488 63.06421 
L 103.75128 62.487994 
L 104.15304 62.346658 
L 104.51016 62.529307 
L 104.84496 62.966362 
L 105.29136 63.957888 
L 105.84936 65.856139 
L 106.49664 68.965531 
L 107.25552 73.799222 
L 108.17064 81.196531 
L 109.30896 92.388168 
L 110.98296 111.340238 
L 113.21496 136.339315 
L 114.28632 146.067581 
L 115.11216 151.807997 
L 115.78176 155.089166 
L 116.33976 156.776501 
L 116.7192 157.350542 
L 117.00936 157.46796 
L 117.25488 157.346194 
L 117.56736 156.896093 
L 117.96912 155.834986 
L 118.48248 153.699725 
L 119.10744 149.968454 
L 119.88864 143.701834 
L 120.82608 134.217101 
L 122.25456 117.121968 
L 124.48656 90.644299 
L 125.424 82.17936 
L 126.11592 77.682701 
L 126.67392 75.340872 
L 127.098 74.399357 
L 127.38816 74.18844 
L 127.61136 74.268893 
L 127.85688 74.608099 
L 128.19168 75.486557 
L 128.61576 77.28696 
L 129.17376 80.792093 
L 129.82104 86.360731 
L 130.6692 95.767186 
L 131.82984 111.37068 
L 134.39664 146.550298 
L 135.2448 154.956528 
L 135.89208 159.40535 
L 136.38312 161.468856 
L 136.74024 162.208152 
L 136.98576 162.334267 
L 137.20896 162.17771 
L 137.4768 161.644982 
L 137.83392 160.357738 
L 138.30264 157.694098 
L 138.88296 152.95608 
L 139.61952 144.941242 
L 140.6016 131.675227 
L 143.34696 93.170952 
L 144.08352 86.278104 
L 144.66384 82.746878 
L 145.08792 81.359611 
L 145.37808 81.022579 
L 145.57896 81.087811 
L 145.80216 81.444413 
L 146.11464 82.45116 
L 146.5164 84.597293 
L 147.02976 88.665595 
L 147.69936 95.9868 
L 148.56984 108.178661 
L 151.80624 156.017635 
L 152.4312 161.149219 
L 152.89992 163.419293 
L 153.23472 164.147717 
L 153.45792 164.210774 
L 153.6588 163.97159 
L 153.92664 163.225771 
L 154.28376 161.479728 
L 154.75248 157.941979 
L 155.35512 151.512278 
L 156.15864 140.307595 
L 157.788 113.514638 
L 158.85936 97.954632 
L 159.5736 90.552974 
L 160.08696 87.23484 
L 160.4664 85.993258 
L 160.71192 85.764946 
L 160.89048 85.886712 
L 161.11368 86.380301 
L 161.42616 87.702336 
L 161.82792 90.450778 
L 162.34128 95.560618 
L 163.05552 105.201907 
L 164.10456 122.810198 
L 165.75624 150.322882 
L 166.4928 159.059621 
L 167.02848 163.108354 
L 167.40792 164.630434 
L 167.67576 164.993558 
L 167.832 164.930501 
L 168.01056 164.610864 
L 168.2784 163.634558 
L 168.63552 161.434066 
L 169.10424 157.080917 
L 169.7292 149.029114 
L 170.64432 133.975742 
L 172.60848 101.090117 
L 173.27808 93.747168 
L 173.7468 90.637776 
L 174.0816 89.563622 
L 174.3048 89.402717 
L 174.46104 89.554925 
L 174.68424 90.155059 
L 174.99672 91.733674 
L 175.4208 95.204016 
L 175.95648 101.557613 
L 176.69304 113.12977 
L 179.39376 158.424696 
L 179.92944 163.071389 
L 180.30888 164.821781 
L 180.57672 165.239266 
L 180.73296 165.163162 
L 180.93384 164.719584 
L 181.20168 163.532362 
L 181.58112 160.723037 
L 182.07216 155.287037 
L 182.76408 144.812952 
L 184.05864 120.861936 
L 185.08536 103.747234 
L 185.71032 96.532574 
L 186.17904 93.355776 
L 186.49152 92.431656 
L 186.67008 92.346854 
L 186.82632 92.540376 
L 187.04952 93.24923 
L 187.362 95.077901 
L 187.78608 99.037483 
L 188.34408 106.528291 
L 189.16992 121.02719 
L 191.02248 154.523822 
L 191.62512 161.43624 
L 192.07152 164.356459 
L 192.36168 165.145766 
L 192.54024 165.180557 
L 192.69648 164.928326 
L 192.942 164.006381 
L 193.29912 161.542786 
L 193.74552 156.735187 
L 194.37048 147.315686 
L 195.41952 127.454717 
L 196.60248 106.339118 
L 197.22744 98.796125 
L 197.67384 95.719349 
L 197.964 94.877856 
L 198.14256 94.832194 
L 198.2988 95.086598 
L 198.54432 96.04116 
L 198.90144 98.604778 
L 199.37016 103.919011 
L 199.99512 113.821229 
L 201.17808 137.002507 
L 202.18248 154.671682 
L 202.7628 161.488426 
L 203.18688 164.269483 
L 203.47704 164.987035 
L 203.63328 164.963117 
L 203.81184 164.582597 
L 204.07968 163.312747 
L 204.4368 160.370784 
L 204.92784 154.22593 
L 205.64208 141.95579 
L 207.71784 104.123405 
L 208.2312 99.05053 
L 208.58832 97.269696 
L 208.81152 96.937013 
L 208.94544 97.030512 
L 209.124 97.500182 
L 209.39184 98.924414 
L 209.77128 102.357792 
L 210.28464 109.341965 
L 211.04352 123.227683 
L 212.78448 155.952403 
L 213.34248 162.119002 
L 213.72192 164.276006 
L 213.96744 164.71741 
L 214.10136 164.636957 
L 214.27992 164.171635 
L 214.54776 162.727834 
L 214.90488 159.474931 
L 215.41824 152.449445 
L 216.1548 138.89641 
L 217.80648 107.704642 
L 218.36448 101.420626 
L 218.74392 99.237528 
L 218.98944 98.809171 
L 219.12336 98.911368 
L 219.30192 99.409306 
L 219.59208 101.098814 
L 219.97152 104.851829 
L 220.5072 112.72968 
L 221.33304 128.761531 
L 222.67224 154.421626 
L 223.23024 161.216626 
L 223.632 163.817208 
L 223.87752 164.358634 
L 224.01144 164.310797 
L 224.16768 163.949846 
L 224.4132 162.723485 
L 224.77032 159.570605 
L 225.26136 152.877802 
L 225.9756 139.63788 
L 227.60496 108.604843 
L 228.14064 102.718742 
L 228.49776 100.798747 
L 228.72096 100.481285 
L 228.85488 100.624795 
L 229.05576 101.303208 
L 229.34592 103.244947 
L 229.74768 107.682898 
L 230.30568 116.647949 
L 231.35472 138.09623 
L 232.29216 155.269642 
L 232.82784 161.47103 
L 233.18496 163.571501 
L 233.40816 163.980288 
L 233.54208 163.886789 
L 233.72064 163.364933 
L 233.98848 161.749354 
L 234.36792 157.857178 
L 234.9036 149.635771 
L 235.77408 132.188386 
L 236.89008 111.018427 
L 237.42576 104.643086 
L 237.8052 102.370838 
L 238.0284 101.992493 
L 238.16232 102.112085 
L 238.34088 102.677429 
L 238.63104 104.560459 
L 239.0328 109.002758 
L 239.5908 118.093925 
L 240.7068 141.133867 
L 241.53264 155.858904 
L 242.046 161.521042 
L 242.3808 163.295352 
L 242.58168 163.573675 
L 242.7156 163.425816 
L 242.91648 162.708264 
L 243.20664 160.646933 
L 243.6084 155.954578 
L 244.18872 146.145859 
L 246.33144 106.930555 
L 246.7332 104.010336 
L 246.97872 103.386283 
L 247.11264 103.429771 
L 247.26888 103.821163 
L 247.5144 105.171466 
L 247.87152 108.650506 
L 248.36256 115.969536 
L 249.16608 131.986166 
L 250.3044 154.121558 
L 250.84008 160.625189 
L 251.1972 162.780019 
L 251.4204 163.151842 
L 251.55432 163.006157 
L 251.73288 162.386453 
L 252.00072 160.564306 
L 252.38016 156.285086 
L 252.93816 147.039538 
L 255.1032 107.665502 
L 255.48264 105.11928 
L 255.70584 104.640912 
L 255.83976 104.727888 
L 256.01832 105.278011 
L 256.28616 107.013182 
L 256.6656 111.209774 
L 257.20128 119.99435 
L 258.36192 144.027994 
L 259.09848 156.569933 
L 259.5672 161.275334 
L 259.87968 162.614765 
L 260.03592 162.708264 
L 260.16984 162.482126 
L 260.37072 161.614541 
L 260.6832 159.057446 
L 261.10728 153.471413 
L 261.75456 141.494818 
L 263.27232 112.331765 
L 263.74104 107.428493 
L 264.05352 105.962947 
L 264.23208 105.821611 
L 264.366 106.049923 
L 264.56688 106.926206 
L 264.87936 109.515917 
L 265.30344 115.162834 
L 265.97304 127.706947 
L 267.42384 155.665382 
L 267.89256 160.636061 
L 268.20504 162.127699 
L 268.3836 162.277733 
L 268.51752 162.049421 
L 268.7184 161.170963 
L 269.03088 158.566032 
L 269.45496 152.884325 
L 270.10224 140.777266 
L 271.53072 113.397221 
L 271.99944 108.474379 
L 272.31192 107.032752 
L 272.46816 106.906637 
L 272.49048 106.919683 
L 272.6244 107.178437 
L 272.8476 108.25259 
L 273.16008 111.046694 
L 273.60648 117.337234 
L 274.2984 130.725014 
L 275.54832 154.754309 
L 276.03936 160.146821 
L 276.35184 161.684122 
L 276.5304 161.845027 
L 276.66432 161.623238 
L 276.88752 160.599096 
L 277.2 157.859352 
L 277.6464 151.627522 
L 278.36064 137.837477 
L 279.5436 115.186752 
L 280.03464 109.70509 
L 280.34712 108.113429 
L 280.52568 107.924256 
L 280.6596 108.130824 
L 280.86048 108.996235 
L 281.15064 111.372854 
L 281.57472 116.993678 
L 282.222 129.09204 
L 283.58352 155.078294 
L 284.05224 159.964171 
L 284.36472 161.329694 
L 284.49864 161.418845 
L 284.52096 161.403624 
L 284.65488 161.142696 
L 284.87808 160.046798 
L 285.19056 157.198334 
L 285.63696 150.814296 
L 286.37352 136.448035 
L 287.44488 116.147837 
L 287.93592 110.642256 
L 288.2484 109.061467 
L 288.42696 108.885341 
L 288.56088 109.10713 
L 288.76176 109.998634 
L 289.07424 112.668797 
L 289.52064 118.859314 
L 290.21256 132.149246 
L 291.3732 154.152 
L 291.84192 159.294456 
L 292.1544 160.836106 
L 292.31064 160.992662 
L 292.33296 160.98179 
L 292.46688 160.738258 
L 292.69008 159.664104 
L 293.00256 156.830861 
L 293.44896 150.451171 
L 294.20784 135.658728 
L 295.23456 116.55445 
L 295.70328 111.440261 
L 296.01576 109.926878 
L 296.172 109.785542 
L 296.19432 109.798589 
L 296.32824 110.059517 
L 296.52912 111.014078 
L 296.8416 113.78209 
L 297.288 120.094373 
L 298.02456 134.369309 
L 299.05128 153.582307 
L 299.52 158.803042 
L 299.83248 160.392528 
L 300.01104 160.562131 
L 300.14496 160.331645 
L 300.34584 159.420571 
L 300.65832 156.711269 
L 301.10472 150.468566 
L 301.81896 136.763323 
L 302.84568 117.62208 
L 303.3144 112.401346 
L 303.62688 110.811859 
L 303.78312 110.633558 
L 303.80544 110.64443 
L 303.93936 110.874917 
L 304.14024 111.792514 
L 304.45272 114.512688 
L 304.8768 120.400963 
L 305.56872 133.556083 
L 306.64008 153.467064 
L 307.1088 158.548637 
L 307.42128 160.025054 
L 307.57752 160.142472 
L 307.59984 160.125077 
L 307.73376 159.84023 
L 307.95696 158.696496 
L 308.26944 155.761056 
L 308.73816 148.883429 
L 309.58632 132.275362 
L 310.43448 117.376373 
L 310.88088 112.821005 
L 311.17104 111.551155 
L 311.30496 111.446784 
L 311.32728 111.45983 
L 311.4612 111.71641 
L 311.66208 112.668797 
L 311.97456 115.441157 
L 312.42096 121.751266 
L 313.17984 136.324094 
L 314.11728 153.277891 
L 314.586 158.24857 
L 314.89848 159.64236 
L 315.05472 159.71629 
L 315.18864 159.44449 
L 315.38952 158.470358 
L 315.702 155.669731 
L 316.1484 149.337878 
L 316.95192 133.925731 
L 317.8224 118.487491 
L 318.29112 113.612486 
L 318.58128 112.327416 
L 318.73752 112.227394 
L 318.87144 112.475275 
L 319.09464 113.562475 
L 319.40712 116.423986 
L 319.87584 123.197242 
L 320.74632 140.007528 
L 321.54984 153.738864 
L 321.99624 158.118106 
L 322.2864 159.264014 
L 322.42032 159.307502 
L 322.44264 159.285758 
L 322.59888 158.890018 
L 322.8444 157.441867 
L 323.1792 153.962827 
L 323.69256 145.90885 
L 325.47816 115.454203 
L 325.83528 113.249362 
L 326.03616 112.94712 
L 326.14776 113.077584 
L 326.32632 113.725555 
L 326.59416 115.680341 
L 326.9736 120.259627 
L 327.55392 130.26839 
L 328.89312 154.049803 
L 329.3172 157.915886 
L 329.58504 158.872622 
L 329.71896 158.892192 
L 329.85288 158.607346 
L 330.07608 157.463611 
L 330.38856 154.543392 
L 330.85728 147.748392 
L 331.83936 129.11161 
L 332.53128 118.224389 
L 332.95536 114.519211 
L 333.2232 113.669021 
L 333.35712 113.701637 
L 333.51336 114.12347 
L 333.75888 115.604237 
L 334.116 119.398565 
L 334.65168 127.941782 
L 336.2364 155.084818 
L 336.61584 157.928933 
L 336.86136 158.518195 
L 336.97296 158.448614 
L 337.15152 157.896317 
L 337.41936 156.093739 
L 337.7988 151.723195 
L 338.3568 142.436333 
L 339.74064 118.609258 
L 340.16472 115.071509 
L 340.43256 114.323515 
L 340.54416 114.369178 
L 340.7004 114.786662 
L 340.94592 116.252208 
L 341.30304 120.009571 
L 341.83872 128.457115 
L 343.40112 154.778227 
L 343.78056 157.563634 
L 344.02608 158.124629 
L 344.13768 158.044176 
L 344.31624 157.481006 
L 344.58408 155.669731 
L 344.96352 151.314408 
L 345.54384 141.701386 
L 346.8384 119.616005 
L 347.26248 115.891258 
L 347.53032 114.995405 
L 347.66424 114.995405 
L 347.79816 115.295472 
L 348.02136 116.450078 
L 348.35616 119.609482 
L 348.8472 126.77413 
L 350.65512 155.737138 
L 350.98992 157.526669 
L 351.16848 157.731062 
L 351.3024 157.535366 
L 351.50328 156.68735 
L 351.79344 154.352045 
L 352.21752 148.894301 
L 352.9764 135.499997 
L 353.8692 120.851064 
L 354.3156 116.691437 
L 354.60576 115.623806 
L 354.73968 115.599888 
L 354.8736 115.869514 
L 355.0968 116.96976 
L 355.40928 119.781259 
L 355.878 126.308808 
L 357.79752 155.92631 
L 358.11 157.254869 
L 358.24392 157.33967 
L 358.26624 157.32445 
L 358.40016 157.063522 
L 358.62336 155.987194 
L 358.93584 153.214834 
L 359.40456 146.761214 
L 361.30176 117.672091 
L 361.61424 116.28265 
L 361.77048 116.176104 
L 361.9044 116.402242 
L 362.1276 117.419861 
L 362.44008 120.109594 
L 362.88648 126.091368 
L 363.8016 142.179754 
L 364.51584 152.756035 
L 364.93992 156.193762 
L 365.20776 156.950453 
L 365.34168 156.891744 
L 365.49792 156.461213 
L 365.74344 155.008714 
L 366.10056 151.36007 
L 366.63624 143.282174 
L 368.08704 120.209616 
L 368.4888 117.29592 
L 368.73432 116.737099 
L 368.84592 116.802331 
L 369.00216 117.228514 
L 369.24768 118.663618 
L 369.6048 122.27747 
L 370.1628 130.664131 
L 371.56896 152.923464 
L 371.97072 155.935008 
L 372.21624 156.569933 
L 372.35016 156.513398 
L 372.5064 156.087216 
L 372.75192 154.66081 
L 373.10904 151.075224 
L 373.64472 143.145187 
L 375.0732 120.818448 
L 375.47496 117.887357 
L 375.72048 117.291571 
L 375.83208 117.332885 
L 375.98832 117.722102 
L 376.23384 119.085451 
L 376.59096 122.573189 
L 377.12664 130.370587 
L 378.57744 152.797349 
L 378.9792 155.647987 
L 379.22472 156.202459 
L 379.33632 156.14375 
L 379.49256 155.737138 
L 379.73808 154.354219 
L 380.0952 150.859958 
L 380.6532 142.740749 
L 382.05936 121.259851 
L 382.46112 118.396166 
L 382.70664 117.817776 
L 382.84056 117.89388 
L 383.01912 118.424434 
L 383.28696 120.10307 
L 383.68872 124.393162 
L 384.336 134.36496 
L 385.42968 151.157851 
L 385.87608 154.89347 
L 386.14392 155.778451 
L 386.27784 155.813242 
L 386.30016 155.791498 
L 386.4564 155.432722 
L 386.70192 154.136779 
L 387.05904 150.790378 
L 387.5724 143.634427 
L 388.77768 124.595381 
L 388.77768 124.595381 
" style="fill:none;stroke:#1f77b4;stroke-linecap:square;stroke-width:1.5;"/>
   </g>
   <g id="line2d_16">
    <path clip-path="url(#pca3fdf5e7f)" d="M 54 252 
L 58.66488 251.889225 
L 60.38352 251.615022 
L 61.74504 251.174163 
L 62.928 250.557547 
L 64.02168 249.736667 
L 65.07072 248.672733 
L 66.11976 247.290032 
L 67.19112 245.500066 
L 68.30712 243.179112 
L 69.42312 240.345433 
L 70.6284 236.663739 
L 71.92296 231.952467 
L 73.3068 226.031141 
L 74.73528 218.981736 
L 76.2084 210.803818 
L 78.3288 197.753069 
L 83.73024 163.743278 
L 85.1364 156.683002 
L 86.1408 152.597304 
L 87.0336 149.781456 
L 87.8148 148.031064 
L 88.43976 147.154781 
L 88.88616 146.826446 
L 89.35488 146.761214 
L 89.77896 146.952562 
L 90.24768 147.448325 
L 90.76104 148.33548 
L 91.34136 149.770584 
L 92.07792 152.2494 
L 92.92608 155.985019 
L 93.90816 161.40145 
L 95.15808 169.757669 
L 96.87672 183.119357 
L 100.0908 208.516349 
L 101.27376 215.926704 
L 102.14424 220.088506 
L 102.85848 222.499915 
L 103.39416 223.645824 
L 103.81824 224.119843 
L 104.17536 224.208994 
L 104.46552 224.069832 
L 104.84496 223.593638 
L 105.29136 222.602112 
L 105.84936 220.703861 
L 106.49664 217.594469 
L 107.25552 212.760778 
L 108.17064 205.363469 
L 109.30896 194.171832 
L 110.98296 175.219762 
L 113.21496 150.220685 
L 114.28632 140.492419 
L 115.11216 134.752003 
L 115.78176 131.470834 
L 116.33976 129.783499 
L 116.7192 129.209458 
L 117.00936 129.09204 
L 117.25488 129.213806 
L 117.56736 129.663907 
L 117.96912 130.725014 
L 118.48248 132.860275 
L 119.10744 136.591546 
L 119.88864 142.858166 
L 120.82608 152.342899 
L 122.25456 169.438032 
L 124.48656 195.915701 
L 125.424 204.38064 
L 126.11592 208.877299 
L 126.67392 211.219128 
L 127.098 212.160643 
L 127.38816 212.37156 
L 127.61136 212.291107 
L 127.85688 211.951901 
L 128.19168 211.073443 
L 128.61576 209.27304 
L 129.17376 205.767907 
L 129.82104 200.199269 
L 130.6692 190.792814 
L 131.82984 175.18932 
L 134.39664 140.009702 
L 135.2448 131.603472 
L 135.89208 127.15465 
L 136.38312 125.091144 
L 136.74024 124.351848 
L 136.98576 124.225733 
L 137.20896 124.38229 
L 137.4768 124.915018 
L 137.83392 126.202262 
L 138.30264 128.865902 
L 138.88296 133.60392 
L 139.61952 141.618758 
L 140.6016 154.884773 
L 143.34696 193.389048 
L 144.08352 200.281896 
L 144.66384 203.813122 
L 145.08792 205.200389 
L 145.37808 205.537421 
L 145.57896 205.472189 
L 145.80216 205.115587 
L 146.11464 204.10884 
L 146.5164 201.962707 
L 147.02976 197.894405 
L 147.69936 190.5732 
L 148.56984 178.381339 
L 151.80624 130.542365 
L 152.4312 125.410781 
L 152.89992 123.140707 
L 153.23472 122.412283 
L 153.45792 122.349226 
L 153.6588 122.58841 
L 153.92664 123.334229 
L 154.28376 125.080272 
L 154.75248 128.618021 
L 155.35512 135.047722 
L 156.15864 146.252405 
L 157.788 173.045362 
L 158.85936 188.605368 
L 159.5736 196.007026 
L 160.08696 199.32516 
L 160.4664 200.566742 
L 160.71192 200.795054 
L 160.89048 200.673288 
L 161.11368 200.179699 
L 161.42616 198.857664 
L 161.82792 196.109222 
L 162.34128 190.999382 
L 163.05552 181.358093 
L 164.10456 163.749802 
L 165.75624 136.237118 
L 166.4928 127.500379 
L 167.02848 123.451646 
L 167.40792 121.929566 
L 167.67576 121.566442 
L 167.832 121.629499 
L 168.01056 121.949136 
L 168.2784 122.925442 
L 168.63552 125.125934 
L 169.10424 129.479083 
L 169.7292 137.530886 
L 170.64432 152.584258 
L 172.60848 185.469883 
L 173.27808 192.812832 
L 173.7468 195.922224 
L 174.0816 196.996378 
L 174.3048 197.157283 
L 174.46104 197.005075 
L 174.68424 196.404941 
L 174.99672 194.826326 
L 175.4208 191.355984 
L 175.95648 185.002387 
L 176.69304 173.43023 
L 179.39376 128.135304 
L 179.92944 123.488611 
L 180.30888 121.738219 
L 180.57672 121.320734 
L 180.73296 121.396838 
L 180.93384 121.840416 
L 181.20168 123.027638 
L 181.58112 125.836963 
L 182.07216 131.272963 
L 182.76408 141.747048 
L 184.05864 165.698064 
L 185.08536 182.812766 
L 185.71032 190.027426 
L 186.17904 193.204224 
L 186.49152 194.128344 
L 186.67008 194.213146 
L 186.82632 194.019624 
L 187.04952 193.31077 
L 187.362 191.482099 
L 187.78608 187.522517 
L 188.34408 180.031709 
L 189.16992 165.53281 
L 191.02248 132.036178 
L 191.62512 125.12376 
L 192.07152 122.203541 
L 192.36168 121.414234 
L 192.54024 121.379443 
L 192.69648 121.631674 
L 192.942 122.553619 
L 193.29912 125.017214 
L 193.74552 129.824813 
L 194.37048 139.244314 
L 195.41952 159.105283 
L 196.60248 180.220882 
L 197.22744 187.763875 
L 197.67384 190.840651 
L 197.964 191.682144 
L 198.14256 191.727806 
L 198.2988 191.473402 
L 198.54432 190.51884 
L 198.90144 187.955222 
L 199.37016 182.640989 
L 199.99512 172.738771 
L 201.17808 149.557493 
L 202.18248 131.888318 
L 202.7628 125.071574 
L 203.18688 122.290517 
L 203.47704 121.572965 
L 203.63328 121.596883 
L 203.81184 121.977403 
L 204.07968 123.247253 
L 204.4368 126.189216 
L 204.92784 132.33407 
L 205.64208 144.60421 
L 207.71784 182.436595 
L 208.2312 187.50947 
L 208.58832 189.290304 
L 208.81152 189.622987 
L 208.94544 189.529488 
L 209.124 189.059818 
L 209.39184 187.635586 
L 209.77128 184.202208 
L 210.28464 177.218035 
L 211.04352 163.332317 
L 212.78448 130.607597 
L 213.34248 124.440998 
L 213.72192 122.283994 
L 213.96744 121.84259 
L 214.10136 121.923043 
L 214.27992 122.388365 
L 214.54776 123.832166 
L 214.90488 127.085069 
L 215.41824 134.110555 
L 216.1548 147.66359 
L 217.80648 178.855358 
L 218.36448 185.139374 
L 218.74392 187.322472 
L 218.98944 187.750829 
L 219.12336 187.648632 
L 219.30192 187.150694 
L 219.59208 185.461186 
L 219.97152 181.708171 
L 220.5072 173.83032 
L 221.33304 157.798469 
L 222.67224 132.138374 
L 223.23024 125.343374 
L 223.632 122.742792 
L 223.87752 122.201366 
L 224.01144 122.249203 
L 224.16768 122.610154 
L 224.4132 123.836515 
L 224.77032 126.989395 
L 225.26136 133.682198 
L 225.9756 146.92212 
L 227.60496 177.955157 
L 228.14064 183.841258 
L 228.49776 185.761253 
L 228.72096 186.078715 
L 228.85488 185.935205 
L 229.05576 185.256792 
L 229.34592 183.315053 
L 229.74768 178.877102 
L 230.30568 169.912051 
L 231.35472 148.46377 
L 232.29216 131.290358 
L 232.82784 125.08897 
L 233.18496 122.988499 
L 233.40816 122.579712 
L 233.54208 122.673211 
L 233.72064 123.195067 
L 233.98848 124.810646 
L 234.36792 128.702822 
L 234.9036 136.924229 
L 235.77408 154.371614 
L 236.89008 175.541573 
L 237.42576 181.916914 
L 237.8052 184.189162 
L 238.0284 184.567507 
L 238.16232 184.447915 
L 238.34088 183.882571 
L 238.63104 181.999541 
L 239.0328 177.557242 
L 239.5908 168.466075 
L 240.7068 145.426133 
L 241.53264 130.701096 
L 242.046 125.038958 
L 242.3808 123.264648 
L 242.58168 122.986325 
L 242.7156 123.134184 
L 242.91648 123.851736 
L 243.20664 125.913067 
L 243.6084 130.605422 
L 244.18872 140.414141 
L 246.33144 179.629445 
L 246.7332 182.549664 
L 246.97872 183.173717 
L 247.11264 183.130229 
L 247.26888 182.738837 
L 247.5144 181.388534 
L 247.87152 177.909494 
L 248.36256 170.590464 
L 249.16608 154.573834 
L 250.3044 132.438442 
L 250.84008 125.934811 
L 251.1972 123.779981 
L 251.4204 123.408158 
L 251.55432 123.553843 
L 251.73288 124.173547 
L 252.00072 125.995694 
L 252.38016 130.274914 
L 252.93816 139.520462 
L 255.1032 178.894498 
L 255.48264 181.44072 
L 255.70584 181.919088 
L 255.83976 181.832112 
L 256.01832 181.281989 
L 256.28616 179.546818 
L 256.6656 175.350226 
L 257.20128 166.56565 
L 258.36192 142.532006 
L 259.09848 129.990067 
L 259.5672 125.284666 
L 259.87968 123.945235 
L 260.03592 123.851736 
L 260.16984 124.077874 
L 260.37072 124.945459 
L 260.6832 127.502554 
L 261.10728 133.088587 
L 261.75456 145.065182 
L 263.27232 174.228235 
L 263.74104 179.131507 
L 264.05352 180.597053 
L 264.23208 180.738389 
L 264.366 180.510077 
L 264.56688 179.633794 
L 264.87936 177.044083 
L 265.30344 171.397166 
L 265.97304 158.853053 
L 267.42384 130.894618 
L 267.89256 125.923939 
L 268.20504 124.432301 
L 268.3836 124.282267 
L 268.51752 124.510579 
L 268.7184 125.389037 
L 269.03088 127.993968 
L 269.45496 133.675675 
L 270.10224 145.782734 
L 271.53072 173.162779 
L 271.99944 178.085621 
L 272.31192 179.527248 
L 272.46816 179.653363 
L 272.49048 179.640317 
L 272.6244 179.381563 
L 272.8476 178.30741 
L 273.16008 175.513306 
L 273.60648 169.222766 
L 274.2984 155.834986 
L 275.54832 131.805691 
L 276.03936 126.413179 
L 276.35184 124.875878 
L 276.5304 124.714973 
L 276.66432 124.936762 
L 276.88752 125.960904 
L 277.2 128.700648 
L 277.6464 134.932478 
L 278.36064 148.722523 
L 279.5436 171.373248 
L 280.03464 176.85491 
L 280.34712 178.446571 
L 280.52568 178.635744 
L 280.6596 178.429176 
L 280.86048 177.563765 
L 281.15064 175.187146 
L 281.57472 169.566322 
L 282.222 157.46796 
L 283.58352 131.481706 
L 284.05224 126.595829 
L 284.36472 125.230306 
L 284.49864 125.141155 
L 284.52096 125.156376 
L 284.65488 125.417304 
L 284.87808 126.513202 
L 285.19056 129.361666 
L 285.63696 135.745704 
L 286.37352 150.111965 
L 287.44488 170.412163 
L 287.93592 175.917744 
L 288.2484 177.498533 
L 288.42696 177.674659 
L 288.56088 177.45287 
L 288.76176 176.561366 
L 289.07424 173.891203 
L 289.52064 167.700686 
L 290.21256 154.410754 
L 291.3732 132.408 
L 291.84192 127.265544 
L 292.1544 125.723894 
L 292.31064 125.567338 
L 292.33296 125.57821 
L 292.46688 125.821742 
L 292.69008 126.895896 
L 293.00256 129.729139 
L 293.44896 136.108829 
L 294.20784 150.901272 
L 295.23456 170.00555 
L 295.70328 175.119739 
L 296.01576 176.633122 
L 296.172 176.774458 
L 296.19432 176.761411 
L 296.32824 176.500483 
L 296.52912 175.545922 
L 296.8416 172.77791 
L 297.288 166.465627 
L 298.02456 152.190691 
L 299.05128 132.977693 
L 299.52 127.756958 
L 299.83248 126.167472 
L 300.01104 125.997869 
L 300.14496 126.228355 
L 300.34584 127.139429 
L 300.65832 129.848731 
L 301.10472 136.091434 
L 301.81896 149.796677 
L 302.84568 168.93792 
L 303.3144 174.158654 
L 303.62688 175.748141 
L 303.78312 175.926442 
L 303.80544 175.91557 
L 303.93936 175.685083 
L 304.14024 174.767486 
L 304.45272 172.047312 
L 304.8768 166.159037 
L 305.56872 153.003917 
L 306.64008 133.092936 
L 307.1088 128.011363 
L 307.42128 126.534946 
L 307.57752 126.417528 
L 307.59984 126.434923 
L 307.73376 126.71977 
L 307.95696 127.863504 
L 308.26944 130.798944 
L 308.73816 137.676571 
L 309.58632 154.284638 
L 310.43448 169.183627 
L 310.88088 173.738995 
L 311.17104 175.008845 
L 311.30496 175.113216 
L 311.32728 175.10017 
L 311.4612 174.84359 
L 311.66208 173.891203 
L 311.97456 171.118843 
L 312.42096 164.808734 
L 313.17984 150.235906 
L 314.11728 133.282109 
L 314.586 128.31143 
L 314.89848 126.91764 
L 315.05472 126.84371 
L 315.18864 127.11551 
L 315.38952 128.089642 
L 315.702 130.890269 
L 316.1484 137.222122 
L 316.95192 152.634269 
L 317.8224 168.072509 
L 318.29112 172.947514 
L 318.58128 174.232584 
L 318.73752 174.332606 
L 318.87144 174.084725 
L 319.09464 172.997525 
L 319.40712 170.136014 
L 319.87584 163.362758 
L 320.74632 146.552472 
L 321.54984 132.821136 
L 321.99624 128.441894 
L 322.2864 127.295986 
L 322.42032 127.252498 
L 322.44264 127.274242 
L 322.59888 127.669982 
L 322.8444 129.118133 
L 323.1792 132.597173 
L 323.69256 140.65115 
L 325.47816 171.105797 
L 325.83528 173.310638 
L 326.03616 173.61288 
L 326.14776 173.482416 
L 326.32632 172.834445 
L 326.59416 170.879659 
L 326.9736 166.300373 
L 327.55392 156.29161 
L 328.89312 132.510197 
L 329.3172 128.644114 
L 329.58504 127.687378 
L 329.71896 127.667808 
L 329.85288 127.952654 
L 330.07608 129.096389 
L 330.38856 132.016608 
L 330.85728 138.811608 
L 331.83936 157.44839 
L 332.53128 168.335611 
L 332.95536 172.040789 
L 333.2232 172.890979 
L 333.35712 172.858363 
L 333.51336 172.43653 
L 333.75888 170.955763 
L 334.116 167.161435 
L 334.65168 158.618218 
L 336.2364 131.475182 
L 336.61584 128.631067 
L 336.86136 128.041805 
L 336.97296 128.111386 
L 337.15152 128.663683 
L 337.41936 130.466261 
L 337.7988 134.836805 
L 338.3568 144.123667 
L 339.74064 167.950742 
L 340.16472 171.488491 
L 340.43256 172.236485 
L 340.54416 172.190822 
L 340.7004 171.773338 
L 340.94592 170.307792 
L 341.30304 166.550429 
L 341.83872 158.102885 
L 343.40112 131.781773 
L 343.78056 128.996366 
L 344.02608 128.435371 
L 344.13768 128.515824 
L 344.31624 129.078994 
L 344.58408 130.890269 
L 344.96352 135.245592 
L 345.54384 144.858614 
L 346.8384 166.943995 
L 347.26248 170.668742 
L 347.53032 171.564595 
L 347.66424 171.564595 
L 347.79816 171.264528 
L 348.02136 170.109922 
L 348.35616 166.950518 
L 348.8472 159.78587 
L 350.65512 130.822862 
L 350.98992 129.033331 
L 351.16848 128.828938 
L 351.3024 129.024634 
L 351.50328 129.87265 
L 351.79344 132.207955 
L 352.21752 137.665699 
L 352.9764 151.060003 
L 353.8692 165.708936 
L 354.3156 169.868563 
L 354.60576 170.936194 
L 354.73968 170.960112 
L 354.8736 170.690486 
L 355.0968 169.59024 
L 355.40928 166.778741 
L 355.878 160.251192 
L 357.79752 130.63369 
L 358.11 129.305131 
L 358.24392 129.22033 
L 358.26624 129.23555 
L 358.40016 129.496478 
L 358.62336 130.572806 
L 358.93584 133.345166 
L 359.40456 139.798786 
L 361.30176 168.887909 
L 361.61424 170.279525 
L 361.77048 170.383896 
L 361.9044 170.157758 
L 362.1276 169.140139 
L 362.44008 166.450406 
L 362.88648 160.468632 
L 363.8016 144.380246 
L 364.51584 133.803965 
L 364.93992 130.366238 
L 365.20776 129.609547 
L 365.34168 129.668256 
L 365.49792 130.098787 
L 365.74344 131.551286 
L 366.10056 135.19993 
L 366.63624 143.277826 
L 368.08704 166.350384 
L 368.4888 169.26408 
L 368.73432 169.822901 
L 368.84592 169.757669 
L 369.00216 169.331486 
L 369.24768 167.896382 
L 369.6048 164.28253 
L 370.1628 155.895869 
L 371.56896 133.636536 
L 371.97072 130.624992 
L 372.21624 129.990067 
L 372.35016 130.046602 
L 372.5064 130.472784 
L 372.75192 131.89919 
L 373.10904 135.484776 
L 373.64472 143.414813 
L 375.0732 165.741552 
L 375.47496 168.672643 
L 375.72048 169.268429 
L 375.83208 169.227115 
L 375.98832 168.837898 
L 376.23384 167.474549 
L 376.59096 163.986811 
L 377.12664 156.189413 
L 378.57744 133.762651 
L 378.9792 130.912013 
L 379.22472 130.357541 
L 379.33632 130.41625 
L 379.49256 130.822862 
L 379.73808 132.205781 
L 380.0952 135.700042 
L 380.6532 143.819251 
L 382.05936 165.300149 
L 382.46112 168.163834 
L 382.70664 168.742224 
L 382.84056 168.66612 
L 383.01912 168.135566 
L 383.28696 166.45693 
L 383.68872 162.166838 
L 384.336 152.19504 
L 385.42968 135.402149 
L 385.87608 131.66653 
L 386.14392 130.781549 
L 386.27784 130.746758 
L 386.30016 130.768502 
L 386.4564 131.127278 
L 386.70192 132.423221 
L 387.05904 135.767448 
L 387.59472 143.28 
L 388.77768 161.964619 
L 388.77768 161.964619 
" style="fill:none;stroke:#ff7f0e;stroke-linecap:square;stroke-width:1.5;"/>
   </g>
   <g id="patch_3">
    <path d="M 54 252 
L 54 34.56 
" style="fill:none;stroke:#000000;stroke-linecap:square;stroke-linejoin:miter;stroke-width:0.8;"/>
   </g>
   <g id="patch_4">
    <path d="M 388.8 252 
L 388.8 34.56 
" style="fill:none;stroke:#000000;stroke-linecap:square;stroke-linejoin:miter;stroke-width:0.8;"/>
   </g>
   <g id="patch_5">
    <path d="M 54 252 
L 388.8 252 
" style="fill:none;stroke:#000000;stroke-linecap:square;stroke-linejoin:miter;stroke-width:0.8;"/>
   </g>
   <g id="patch_6">
    <path d="M 54 34.56 
L 388.8 34.56 
" style="fill:none;stroke:#000000;stroke-linecap:square;stroke-linejoin:miter;stroke-width:0.8;"/>
   </g>
   <g id="legend_1">
    <g id="patch_7">
     <path d="M 336.1 72.76 
L 381.8 72.76 
Q 383.8 72.76 383.8 70.76 
L 383.8 41.56 
Q 383.8 39.56 381.8 39.56 
L 336.1 39.56 
Q 334.1 39.56 334.1 41.56 
L 334.1 70.76 
Q 334.1 72.76 336.1 72.76 
z
" style="fill:#ffffff;opacity:0.8;stroke:#cccccc;stroke-linejoin:miter;"/>
    </g>
    <g id="line2d_17">
     <path d="M 338.1 47.76 
L 358.1 47.76 
" style="fill:none;stroke:#1f77b4;stroke-linecap:square;stroke-width:1.5;"/>
    </g>
    <g id="line2d_18"/>
    <g id="text_17">
     <!-- $|0\rangle$ -->
     <defs>
      <path d="M 21 76.421875 
L 21 -23.578125 
L 12.703125 -23.578125 
L 12.703125 76.421875 
z
" id="DejaVuSans-7c"/>
      <path d="M 30.078125 31.34375 
L 16.3125 -13.1875 
L 8.015625 -13.1875 
L 21.78125 31.34375 
L 8.015625 75.875 
L 16.3125 75.875 
z
" id="DejaVuSans-27e9"/>
     </defs>
     <g transform="translate(366.1 51.26)scale(0.1 -0.1)">
      <use transform="translate(0 0.578125)" xlink:href="#DejaVuSans-7c"/>
      <use transform="translate(33.691406 0.578125)" xlink:href="#DejaVuSans-30"/>
      <use transform="translate(97.314453 0.578125)" xlink:href="#DejaVuSans-27e9"/>
     </g>
    </g>
    <g id="line2d_19">
     <path d="M 338.1 62.86 
L 358.1 62.86 
" style="fill:none;stroke:#ff7f0e;stroke-linecap:square;stroke-width:1.5;"/>
    </g>
    <g id="line2d_20"/>
    <g id="text_18">
     <!-- $|1\rangle$ -->
     <g transform="translate(366.1 66.36)scale(0.1 -0.1)">
      <use transform="translate(0 0.578125)" xlink:href="#DejaVuSans-7c"/>
      <use transform="translate(33.691406 0.578125)" xlink:href="#DejaVuSans-31"/>
      <use transform="translate(97.314453 0.578125)" xlink:href="#DejaVuSans-27e9"/>
     </g>
    </g>
   </g>
  </g>
 </g>
 <defs>
  <clipPath id="pca3fdf5e7f">
   <rect height="217.44" width="334.8" x="54" y="34.56"/>
  </clipPath>
 </defs>
</svg>
