<?xml version="1.0" encoding="utf-8" standalone="no"?>
<!DOCTYPE svg PUBLIC "-//W3C//DTD SVG 1.1//EN"
  "http://www.w3.org/Graphics/SVG/1.1/DTD/svg11.dtd">
<!-- Created with matplotlib (http://matplotlib.org/) -->
<svg height="288pt" version="1.1" viewBox="0 0 432 288" width="432pt" xmlns="http://www.w3.org/2000/svg" xmlns:xlink="http://www.w3.org/1999/xlink">
 <defs>
  <style type="text/css">
*{stroke-linecap:butt;stroke-linejoin:round;}
  </style>
 </defs>
 <g id="figure_1">
  <g id="patch_1">
   <path d="M 0 288 
L 432 288 
L 432 0 
L 0 0 
z
" style="fill:#ffffff;"/>
  </g>
  <g id="axes_1">
   <g id="patch_2">
    <path d="M 54 252 
L 388.8 252 
L 388.8 34.56 
L 54 34.56 
z
" style="fill:#ffffff;"/>
   </g>
   <g id="matplotlib.axis_1">
    <g id="xtick_1">
     <g id="line2d_1">
      <defs>
       <path d="M 0 0 
L 0 3.5 
" id="mf6983cf248" style="stroke:#000000;stroke-width:0.8;"/>
      </defs>
      <g>
       <use style="stroke:#000000;stroke-width:0.8;" x="69.218182" xlink:href="#mf6983cf248" y="252"/>
      </g>
     </g>
     <g id="text_1">
      <!-- 0 -->
      <defs>
       <path d="M 31.78125 66.40625 
Q 24.171875 66.40625 20.328125 58.90625 
Q 16.5 51.421875 16.5 36.375 
Q 16.5 21.390625 20.328125 13.890625 
Q 24.171875 6.390625 31.78125 6.390625 
Q 39.453125 6.390625 43.28125 13.890625 
Q 47.125 21.390625 47.125 36.375 
Q 47.125 51.421875 43.28125 58.90625 
Q 39.453125 66.40625 31.78125 66.40625 
z
M 31.78125 74.21875 
Q 44.046875 74.21875 50.515625 64.515625 
Q 56.984375 54.828125 56.984375 36.375 
Q 56.984375 17.96875 50.515625 8.265625 
Q 44.046875 -1.421875 31.78125 -1.421875 
Q 19.53125 -1.421875 13.0625 8.265625 
Q 6.59375 17.96875 6.59375 36.375 
Q 6.59375 54.828125 13.0625 64.515625 
Q 19.53125 74.21875 31.78125 74.21875 
z
" id="DejaVuSans-30"/>
      </defs>
      <g transform="translate(66.036932 266.598437)scale(0.1 -0.1)">
       <use xlink:href="#DejaVuSans-30"/>
      </g>
     </g>
    </g>
    <g id="xtick_2">
     <g id="line2d_2">
      <g>
       <use style="stroke:#000000;stroke-width:0.8;" x="127.542152" xlink:href="#mf6983cf248" y="252"/>
      </g>
     </g>
     <g id="text_2">
      <!-- 2 -->
      <defs>
       <path d="M 19.1875 8.296875 
L 53.609375 8.296875 
L 53.609375 0 
L 7.328125 0 
L 7.328125 8.296875 
Q 12.9375 14.109375 22.625 23.890625 
Q 32.328125 33.6875 34.8125 36.53125 
Q 39.546875 41.84375 41.421875 45.53125 
Q 43.3125 49.21875 43.3125 52.78125 
Q 43.3125 58.59375 39.234375 62.25 
Q 35.15625 65.921875 28.609375 65.921875 
Q 23.96875 65.921875 18.8125 64.3125 
Q 13.671875 62.703125 7.8125 59.421875 
L 7.8125 69.390625 
Q 13.765625 71.78125 18.9375 73 
Q 24.125 74.21875 28.421875 74.21875 
Q 39.75 74.21875 46.484375 68.546875 
Q 53.21875 62.890625 53.21875 53.421875 
Q 53.21875 48.921875 51.53125 44.890625 
Q 49.859375 40.875 45.40625 35.40625 
Q 44.1875 33.984375 37.640625 27.21875 
Q 31.109375 20.453125 19.1875 8.296875 
z
" id="DejaVuSans-32"/>
      </defs>
      <g transform="translate(124.360902 266.598437)scale(0.1 -0.1)">
       <use xlink:href="#DejaVuSans-32"/>
      </g>
     </g>
    </g>
    <g id="xtick_3">
     <g id="line2d_3">
      <g>
       <use style="stroke:#000000;stroke-width:0.8;" x="185.866121" xlink:href="#mf6983cf248" y="252"/>
      </g>
     </g>
     <g id="text_3">
      <!-- 4 -->
      <defs>
       <path d="M 37.796875 64.3125 
L 12.890625 25.390625 
L 37.796875 25.390625 
z
M 35.203125 72.90625 
L 47.609375 72.90625 
L 47.609375 25.390625 
L 58.015625 25.390625 
L 58.015625 17.1875 
L 47.609375 17.1875 
L 47.609375 0 
L 37.796875 0 
L 37.796875 17.1875 
L 4.890625 17.1875 
L 4.890625 26.703125 
z
" id="DejaVuSans-34"/>
      </defs>
      <g transform="translate(182.684871 266.598437)scale(0.1 -0.1)">
       <use xlink:href="#DejaVuSans-34"/>
      </g>
     </g>
    </g>
    <g id="xtick_4">
     <g id="line2d_4">
      <g>
       <use style="stroke:#000000;stroke-width:0.8;" x="244.190091" xlink:href="#mf6983cf248" y="252"/>
      </g>
     </g>
     <g id="text_4">
      <!-- 6 -->
      <defs>
       <path d="M 33.015625 40.375 
Q 26.375 40.375 22.484375 35.828125 
Q 18.609375 31.296875 18.609375 23.390625 
Q 18.609375 15.53125 22.484375 10.953125 
Q 26.375 6.390625 33.015625 6.390625 
Q 39.65625 6.390625 43.53125 10.953125 
Q 47.40625 15.53125 47.40625 23.390625 
Q 47.40625 31.296875 43.53125 35.828125 
Q 39.65625 40.375 33.015625 40.375 
z
M 52.59375 71.296875 
L 52.59375 62.3125 
Q 48.875 64.0625 45.09375 64.984375 
Q 41.3125 65.921875 37.59375 65.921875 
Q 27.828125 65.921875 22.671875 59.328125 
Q 17.53125 52.734375 16.796875 39.40625 
Q 19.671875 43.65625 24.015625 45.921875 
Q 28.375 48.1875 33.59375 48.1875 
Q 44.578125 48.1875 50.953125 41.515625 
Q 57.328125 34.859375 57.328125 23.390625 
Q 57.328125 12.15625 50.6875 5.359375 
Q 44.046875 -1.421875 33.015625 -1.421875 
Q 20.359375 -1.421875 13.671875 8.265625 
Q 6.984375 17.96875 6.984375 36.375 
Q 6.984375 53.65625 15.1875 63.9375 
Q 23.390625 74.21875 37.203125 74.21875 
Q 40.921875 74.21875 44.703125 73.484375 
Q 48.484375 72.75 52.59375 71.296875 
z
" id="DejaVuSans-36"/>
      </defs>
      <g transform="translate(241.008841 266.598437)scale(0.1 -0.1)">
       <use xlink:href="#DejaVuSans-36"/>
      </g>
     </g>
    </g>
    <g id="xtick_5">
     <g id="line2d_5">
      <g>
       <use style="stroke:#000000;stroke-width:0.8;" x="302.514061" xlink:href="#mf6983cf248" y="252"/>
      </g>
     </g>
     <g id="text_5">
      <!-- 8 -->
      <defs>
       <path d="M 31.78125 34.625 
Q 24.75 34.625 20.71875 30.859375 
Q 16.703125 27.09375 16.703125 20.515625 
Q 16.703125 13.921875 20.71875 10.15625 
Q 24.75 6.390625 31.78125 6.390625 
Q 38.8125 6.390625 42.859375 10.171875 
Q 46.921875 13.96875 46.921875 20.515625 
Q 46.921875 27.09375 42.890625 30.859375 
Q 38.875 34.625 31.78125 34.625 
z
M 21.921875 38.8125 
Q 15.578125 40.375 12.03125 44.71875 
Q 8.5 49.078125 8.5 55.328125 
Q 8.5 64.0625 14.71875 69.140625 
Q 20.953125 74.21875 31.78125 74.21875 
Q 42.671875 74.21875 48.875 69.140625 
Q 55.078125 64.0625 55.078125 55.328125 
Q 55.078125 49.078125 51.53125 44.71875 
Q 48 40.375 41.703125 38.8125 
Q 48.828125 37.15625 52.796875 32.3125 
Q 56.78125 27.484375 56.78125 20.515625 
Q 56.78125 9.90625 50.3125 4.234375 
Q 43.84375 -1.421875 31.78125 -1.421875 
Q 19.734375 -1.421875 13.25 4.234375 
Q 6.78125 9.90625 6.78125 20.515625 
Q 6.78125 27.484375 10.78125 32.3125 
Q 14.796875 37.15625 21.921875 38.8125 
z
M 18.3125 54.390625 
Q 18.3125 48.734375 21.84375 45.5625 
Q 25.390625 42.390625 31.78125 42.390625 
Q 38.140625 42.390625 41.71875 45.5625 
Q 45.3125 48.734375 45.3125 54.390625 
Q 45.3125 60.0625 41.71875 63.234375 
Q 38.140625 66.40625 31.78125 66.40625 
Q 25.390625 66.40625 21.84375 63.234375 
Q 18.3125 60.0625 18.3125 54.390625 
z
" id="DejaVuSans-38"/>
      </defs>
      <g transform="translate(299.332811 266.598437)scale(0.1 -0.1)">
       <use xlink:href="#DejaVuSans-38"/>
      </g>
     </g>
    </g>
    <g id="xtick_6">
     <g id="line2d_6">
      <g>
       <use style="stroke:#000000;stroke-width:0.8;" x="360.838031" xlink:href="#mf6983cf248" y="252"/>
      </g>
     </g>
     <g id="text_6">
      <!-- 10 -->
      <defs>
       <path d="M 12.40625 8.296875 
L 28.515625 8.296875 
L 28.515625 63.921875 
L 10.984375 60.40625 
L 10.984375 69.390625 
L 28.421875 72.90625 
L 38.28125 72.90625 
L 38.28125 8.296875 
L 54.390625 8.296875 
L 54.390625 0 
L 12.40625 0 
z
" id="DejaVuSans-31"/>
      </defs>
      <g transform="translate(354.475531 266.598437)scale(0.1 -0.1)">
       <use xlink:href="#DejaVuSans-31"/>
       <use x="63.623047" xlink:href="#DejaVuSans-30"/>
      </g>
     </g>
    </g>
    <g id="text_7">
     <!-- time -->
     <defs>
      <path d="M 18.3125 70.21875 
L 18.3125 54.6875 
L 36.8125 54.6875 
L 36.8125 47.703125 
L 18.3125 47.703125 
L 18.3125 18.015625 
Q 18.3125 11.328125 20.140625 9.421875 
Q 21.96875 7.515625 27.59375 7.515625 
L 36.8125 7.515625 
L 36.8125 0 
L 27.59375 0 
Q 17.1875 0 13.234375 3.875 
Q 9.28125 7.765625 9.28125 18.015625 
L 9.28125 47.703125 
L 2.6875 47.703125 
L 2.6875 54.6875 
L 9.28125 54.6875 
L 9.28125 70.21875 
z
" id="DejaVuSans-74"/>
      <path d="M 9.421875 54.6875 
L 18.40625 54.6875 
L 18.40625 0 
L 9.421875 0 
z
M 9.421875 75.984375 
L 18.40625 75.984375 
L 18.40625 64.59375 
L 9.421875 64.59375 
z
" id="DejaVuSans-69"/>
      <path d="M 52 44.1875 
Q 55.375 50.25 60.0625 53.125 
Q 64.75 56 71.09375 56 
Q 79.640625 56 84.28125 50.015625 
Q 88.921875 44.046875 88.921875 33.015625 
L 88.921875 0 
L 79.890625 0 
L 79.890625 32.71875 
Q 79.890625 40.578125 77.09375 44.375 
Q 74.3125 48.1875 68.609375 48.1875 
Q 61.625 48.1875 57.5625 43.546875 
Q 53.515625 38.921875 53.515625 30.90625 
L 53.515625 0 
L 44.484375 0 
L 44.484375 32.71875 
Q 44.484375 40.625 41.703125 44.40625 
Q 38.921875 48.1875 33.109375 48.1875 
Q 26.21875 48.1875 22.15625 43.53125 
Q 18.109375 38.875 18.109375 30.90625 
L 18.109375 0 
L 9.078125 0 
L 9.078125 54.6875 
L 18.109375 54.6875 
L 18.109375 46.1875 
Q 21.1875 51.21875 25.484375 53.609375 
Q 29.78125 56 35.6875 56 
Q 41.65625 56 45.828125 52.96875 
Q 50 49.953125 52 44.1875 
z
" id="DejaVuSans-6d"/>
      <path d="M 56.203125 29.59375 
L 56.203125 25.203125 
L 14.890625 25.203125 
Q 15.484375 15.921875 20.484375 11.0625 
Q 25.484375 6.203125 34.421875 6.203125 
Q 39.59375 6.203125 44.453125 7.46875 
Q 49.3125 8.734375 54.109375 11.28125 
L 54.109375 2.78125 
Q 49.265625 0.734375 44.1875 -0.34375 
Q 39.109375 -1.421875 33.890625 -1.421875 
Q 20.796875 -1.421875 13.15625 6.1875 
Q 5.515625 13.8125 5.515625 26.8125 
Q 5.515625 40.234375 12.765625 48.109375 
Q 20.015625 56 32.328125 56 
Q 43.359375 56 49.78125 48.890625 
Q 56.203125 41.796875 56.203125 29.59375 
z
M 47.21875 32.234375 
Q 47.125 39.59375 43.09375 43.984375 
Q 39.0625 48.390625 32.421875 48.390625 
Q 24.90625 48.390625 20.390625 44.140625 
Q 15.875 39.890625 15.1875 32.171875 
z
" id="DejaVuSans-65"/>
     </defs>
     <g transform="translate(210.103906 280.276563)scale(0.1 -0.1)">
      <use xlink:href="#DejaVuSans-74"/>
      <use x="39.208984" xlink:href="#DejaVuSans-69"/>
      <use x="66.992188" xlink:href="#DejaVuSans-6d"/>
      <use x="164.404297" xlink:href="#DejaVuSans-65"/>
     </g>
    </g>
   </g>
   <g id="matplotlib.axis_2">
    <g id="ytick_1">
     <g id="line2d_7">
      <defs>
       <path d="M 0 0 
L -3.5 0 
" id="mc162c8922a" style="stroke:#000000;stroke-width:0.8;"/>
      </defs>
      <g>
       <use style="stroke:#000000;stroke-width:0.8;" x="54" xlink:href="#mc162c8922a" y="252"/>
      </g>
     </g>
     <g id="text_8">
      <!-- 0.0 -->
      <defs>
       <path d="M 10.6875 12.40625 
L 21 12.40625 
L 21 0 
L 10.6875 0 
z
" id="DejaVuSans-2e"/>
      </defs>
      <g transform="translate(31.096875 255.799219)scale(0.1 -0.1)">
       <use xlink:href="#DejaVuSans-30"/>
       <use x="63.623047" xlink:href="#DejaVuSans-2e"/>
       <use x="95.410156" xlink:href="#DejaVuSans-30"/>
      </g>
     </g>
    </g>
    <g id="ytick_2">
     <g id="line2d_8">
      <g>
       <use style="stroke:#000000;stroke-width:0.8;" x="54" xlink:href="#mc162c8922a" y="208.512"/>
      </g>
     </g>
     <g id="text_9">
      <!-- 0.2 -->
      <g transform="translate(31.096875 212.311219)scale(0.1 -0.1)">
       <use xlink:href="#DejaVuSans-30"/>
       <use x="63.623047" xlink:href="#DejaVuSans-2e"/>
       <use x="95.410156" xlink:href="#DejaVuSans-32"/>
      </g>
     </g>
    </g>
    <g id="ytick_3">
     <g id="line2d_9">
      <g>
       <use style="stroke:#000000;stroke-width:0.8;" x="54" xlink:href="#mc162c8922a" y="165.024"/>
      </g>
     </g>
     <g id="text_10">
      <!-- 0.4 -->
      <g transform="translate(31.096875 168.823219)scale(0.1 -0.1)">
       <use xlink:href="#DejaVuSans-30"/>
       <use x="63.623047" xlink:href="#DejaVuSans-2e"/>
       <use x="95.410156" xlink:href="#DejaVuSans-34"/>
      </g>
     </g>
    </g>
    <g id="ytick_4">
     <g id="line2d_10">
      <g>
       <use style="stroke:#000000;stroke-width:0.8;" x="54" xlink:href="#mc162c8922a" y="121.536"/>
      </g>
     </g>
     <g id="text_11">
      <!-- 0.6 -->
      <g transform="translate(31.096875 125.335219)scale(0.1 -0.1)">
       <use xlink:href="#DejaVuSans-30"/>
       <use x="63.623047" xlink:href="#DejaVuSans-2e"/>
       <use x="95.410156" xlink:href="#DejaVuSans-36"/>
      </g>
     </g>
    </g>
    <g id="ytick_5">
     <g id="line2d_11">
      <g>
       <use style="stroke:#000000;stroke-width:0.8;" x="54" xlink:href="#mc162c8922a" y="78.048"/>
      </g>
     </g>
     <g id="text_12">
      <!-- 0.8 -->
      <g transform="translate(31.096875 81.847219)scale(0.1 -0.1)">
       <use xlink:href="#DejaVuSans-30"/>
       <use x="63.623047" xlink:href="#DejaVuSans-2e"/>
       <use x="95.410156" xlink:href="#DejaVuSans-38"/>
      </g>
     </g>
    </g>
    <g id="ytick_6">
     <g id="line2d_12">
      <g>
       <use style="stroke:#000000;stroke-width:0.8;" x="54" xlink:href="#mc162c8922a" y="34.56"/>
      </g>
     </g>
     <g id="text_13">
      <!-- 1.0 -->
      <g transform="translate(31.096875 38.359219)scale(0.1 -0.1)">
       <use xlink:href="#DejaVuSans-31"/>
       <use x="63.623047" xlink:href="#DejaVuSans-2e"/>
       <use x="95.410156" xlink:href="#DejaVuSans-30"/>
      </g>
     </g>
    </g>
    <g id="text_14">
     <!-- expectation value -->
     <defs>
      <path d="M 54.890625 54.6875 
L 35.109375 28.078125 
L 55.90625 0 
L 45.3125 0 
L 29.390625 21.484375 
L 13.484375 0 
L 2.875 0 
L 24.125 28.609375 
L 4.6875 54.6875 
L 15.28125 54.6875 
L 29.78125 35.203125 
L 44.28125 54.6875 
z
" id="DejaVuSans-78"/>
      <path d="M 18.109375 8.203125 
L 18.109375 -20.796875 
L 9.078125 -20.796875 
L 9.078125 54.6875 
L 18.109375 54.6875 
L 18.109375 46.390625 
Q 20.953125 51.265625 25.265625 53.625 
Q 29.59375 56 35.59375 56 
Q 45.5625 56 51.78125 48.09375 
Q 58.015625 40.1875 58.015625 27.296875 
Q 58.015625 14.40625 51.78125 6.484375 
Q 45.5625 -1.421875 35.59375 -1.421875 
Q 29.59375 -1.421875 25.265625 0.953125 
Q 20.953125 3.328125 18.109375 8.203125 
z
M 48.6875 27.296875 
Q 48.6875 37.203125 44.609375 42.84375 
Q 40.53125 48.484375 33.40625 48.484375 
Q 26.265625 48.484375 22.1875 42.84375 
Q 18.109375 37.203125 18.109375 27.296875 
Q 18.109375 17.390625 22.1875 11.75 
Q 26.265625 6.109375 33.40625 6.109375 
Q 40.53125 6.109375 44.609375 11.75 
Q 48.6875 17.390625 48.6875 27.296875 
z
" id="DejaVuSans-70"/>
      <path d="M 48.78125 52.59375 
L 48.78125 44.1875 
Q 44.96875 46.296875 41.140625 47.34375 
Q 37.3125 48.390625 33.40625 48.390625 
Q 24.65625 48.390625 19.8125 42.84375 
Q 14.984375 37.3125 14.984375 27.296875 
Q 14.984375 17.28125 19.8125 11.734375 
Q 24.65625 6.203125 33.40625 6.203125 
Q 37.3125 6.203125 41.140625 7.25 
Q 44.96875 8.296875 48.78125 10.40625 
L 48.78125 2.09375 
Q 45.015625 0.34375 40.984375 -0.53125 
Q 36.96875 -1.421875 32.421875 -1.421875 
Q 20.0625 -1.421875 12.78125 6.34375 
Q 5.515625 14.109375 5.515625 27.296875 
Q 5.515625 40.671875 12.859375 48.328125 
Q 20.21875 56 33.015625 56 
Q 37.15625 56 41.109375 55.140625 
Q 45.0625 54.296875 48.78125 52.59375 
z
" id="DejaVuSans-63"/>
      <path d="M 34.28125 27.484375 
Q 23.390625 27.484375 19.1875 25 
Q 14.984375 22.515625 14.984375 16.5 
Q 14.984375 11.71875 18.140625 8.90625 
Q 21.296875 6.109375 26.703125 6.109375 
Q 34.1875 6.109375 38.703125 11.40625 
Q 43.21875 16.703125 43.21875 25.484375 
L 43.21875 27.484375 
z
M 52.203125 31.203125 
L 52.203125 0 
L 43.21875 0 
L 43.21875 8.296875 
Q 40.140625 3.328125 35.546875 0.953125 
Q 30.953125 -1.421875 24.3125 -1.421875 
Q 15.921875 -1.421875 10.953125 3.296875 
Q 6 8.015625 6 15.921875 
Q 6 25.140625 12.171875 29.828125 
Q 18.359375 34.515625 30.609375 34.515625 
L 43.21875 34.515625 
L 43.21875 35.40625 
Q 43.21875 41.609375 39.140625 45 
Q 35.0625 48.390625 27.6875 48.390625 
Q 23 48.390625 18.546875 47.265625 
Q 14.109375 46.140625 10.015625 43.890625 
L 10.015625 52.203125 
Q 14.9375 54.109375 19.578125 55.046875 
Q 24.21875 56 28.609375 56 
Q 40.484375 56 46.34375 49.84375 
Q 52.203125 43.703125 52.203125 31.203125 
z
" id="DejaVuSans-61"/>
      <path d="M 30.609375 48.390625 
Q 23.390625 48.390625 19.1875 42.75 
Q 14.984375 37.109375 14.984375 27.296875 
Q 14.984375 17.484375 19.15625 11.84375 
Q 23.34375 6.203125 30.609375 6.203125 
Q 37.796875 6.203125 41.984375 11.859375 
Q 46.1875 17.53125 46.1875 27.296875 
Q 46.1875 37.015625 41.984375 42.703125 
Q 37.796875 48.390625 30.609375 48.390625 
z
M 30.609375 56 
Q 42.328125 56 49.015625 48.375 
Q 55.71875 40.765625 55.71875 27.296875 
Q 55.71875 13.875 49.015625 6.21875 
Q 42.328125 -1.421875 30.609375 -1.421875 
Q 18.84375 -1.421875 12.171875 6.21875 
Q 5.515625 13.875 5.515625 27.296875 
Q 5.515625 40.765625 12.171875 48.375 
Q 18.84375 56 30.609375 56 
z
" id="DejaVuSans-6f"/>
      <path d="M 54.890625 33.015625 
L 54.890625 0 
L 45.90625 0 
L 45.90625 32.71875 
Q 45.90625 40.484375 42.875 44.328125 
Q 39.84375 48.1875 33.796875 48.1875 
Q 26.515625 48.1875 22.3125 43.546875 
Q 18.109375 38.921875 18.109375 30.90625 
L 18.109375 0 
L 9.078125 0 
L 9.078125 54.6875 
L 18.109375 54.6875 
L 18.109375 46.1875 
Q 21.34375 51.125 25.703125 53.5625 
Q 30.078125 56 35.796875 56 
Q 45.21875 56 50.046875 50.171875 
Q 54.890625 44.34375 54.890625 33.015625 
z
" id="DejaVuSans-6e"/>
      <path id="DejaVuSans-20"/>
      <path d="M 2.984375 54.6875 
L 12.5 54.6875 
L 29.59375 8.796875 
L 46.6875 54.6875 
L 56.203125 54.6875 
L 35.6875 0 
L 23.484375 0 
z
" id="DejaVuSans-76"/>
      <path d="M 9.421875 75.984375 
L 18.40625 75.984375 
L 18.40625 0 
L 9.421875 0 
z
" id="DejaVuSans-6c"/>
      <path d="M 8.5 21.578125 
L 8.5 54.6875 
L 17.484375 54.6875 
L 17.484375 21.921875 
Q 17.484375 14.15625 20.5 10.265625 
Q 23.53125 6.390625 29.59375 6.390625 
Q 36.859375 6.390625 41.078125 11.03125 
Q 45.3125 15.671875 45.3125 23.6875 
L 45.3125 54.6875 
L 54.296875 54.6875 
L 54.296875 0 
L 45.3125 0 
L 45.3125 8.40625 
Q 42.046875 3.421875 37.71875 1 
Q 33.40625 -1.421875 27.6875 -1.421875 
Q 18.265625 -1.421875 13.375 4.4375 
Q 8.5 10.296875 8.5 21.578125 
z
M 31.109375 56 
z
" id="DejaVuSans-75"/>
     </defs>
     <g transform="translate(25.017187 188.163594)rotate(-90)scale(0.1 -0.1)">
      <use xlink:href="#DejaVuSans-65"/>
      <use x="61.507812" xlink:href="#DejaVuSans-78"/>
      <use x="120.6875" xlink:href="#DejaVuSans-70"/>
      <use x="184.164062" xlink:href="#DejaVuSans-65"/>
      <use x="245.6875" xlink:href="#DejaVuSans-63"/>
      <use x="300.667969" xlink:href="#DejaVuSans-74"/>
      <use x="339.876953" xlink:href="#DejaVuSans-61"/>
      <use x="401.15625" xlink:href="#DejaVuSans-74"/>
      <use x="440.365234" xlink:href="#DejaVuSans-69"/>
      <use x="468.148438" xlink:href="#DejaVuSans-6f"/>
      <use x="529.330078" xlink:href="#DejaVuSans-6e"/>
      <use x="592.708984" xlink:href="#DejaVuSans-20"/>
      <use x="624.496094" xlink:href="#DejaVuSans-76"/>
      <use x="683.675781" xlink:href="#DejaVuSans-61"/>
      <use x="744.955078" xlink:href="#DejaVuSans-6c"/>
      <use x="772.738281" xlink:href="#DejaVuSans-75"/>
      <use x="836.117188" xlink:href="#DejaVuSans-65"/>
     </g>
    </g>
   </g>
   <g id="line2d_13">
    <path clip-path="url(#p11262f2a80)" d="M 69.218182 34.56 
L 73.59248 34.670894 
L 74.554825 34.92095 
L 75.400523 35.418888 
L 76.012924 36.055987 
L 76.654488 37.09535 
L 77.237728 38.495664 
L 77.820967 40.467845 
L 78.462531 43.49461 
L 79.104095 47.656411 
L 79.803982 53.805614 
L 80.533032 62.366227 
L 81.291244 73.992744 
L 82.136941 90.559498 
L 83.099287 113.971262 
L 84.61571 157.391856 
L 85.840513 189.962194 
L 86.482077 201.79093 
L 86.919507 206.407181 
L 87.211126 207.583531 
L 87.327774 207.590054 
L 87.473584 207.203011 
L 87.70688 205.652664 
L 88.027662 201.597408 
L 88.43593 193.219445 
L 88.990008 176.535274 
L 89.806543 144.151934 
L 90.914699 101.49673 
L 91.38129 90.8226 
L 91.67291 87.843672 
L 91.789558 87.554477 
L 91.81872 87.565349 
L 91.906206 87.800184 
L 92.081178 89.1918 
L 92.343636 93.57539 
L 92.722742 104.471309 
L 93.276819 127.909166 
L 94.443299 178.816219 
L 94.793243 185.906938 
L 94.997376 187.05937 
L 95.0557 186.957173 
L 95.20151 185.84388 
L 95.434806 181.566835 
L 95.78475 169.9164 
L 96.397152 139.90968 
L 97.097039 108.867946 
L 97.417821 102.503477 
L 97.534469 101.935958 
L 97.563631 101.94683 
L 97.651117 102.357792 
L 97.826089 104.843131 
L 98.088547 112.483973 
L 98.525977 133.084238 
L 99.371674 173.125814 
L 99.634132 177.633346 
L 99.721618 177.846437 
L 99.75078 177.768158 
L 99.867428 176.713574 
L 100.071562 172.099498 
L 100.392344 158.822611 
L 101.442175 110.972765 
L 101.587985 109.807286 
L 101.617147 109.82903 
L 101.704633 110.409595 
L 101.879605 113.834275 
L 102.171225 125.367293 
L 103.191894 171.60156 
L 103.27938 172.136462 
L 103.337704 172.012522 
L 103.454352 170.616557 
L 103.658486 164.708712 
L 104.037592 145.421784 
L 104.620831 117.648173 
L 104.824965 114.99323 
L 104.883289 115.17588 
L 104.999937 116.797982 
L 105.204071 123.369019 
L 105.641501 147.115642 
L 106.078931 166.215571 
L 106.253903 168.126869 
L 106.312227 167.85072 
L 106.458037 165.191429 
L 106.720494 154.34987 
L 107.478706 119.283322 
L 107.566192 118.74407 
L 107.595354 118.809302 
L 107.712002 120.300941 
L 107.916136 127.213358 
L 108.790995 165.108802 
L 108.820157 165.07836 
L 108.907643 164.202077 
L 109.082615 159.137899 
L 109.461721 138.794213 
L 109.840827 122.755838 
L 109.957475 121.612104 
L 109.986637 121.672987 
L 110.074123 122.67756 
L 110.249095 128.130955 
L 111.06563 162.738706 
L 111.123954 162.382104 
L 111.269764 159.037877 
L 111.561384 144.656395 
L 111.998814 124.862832 
L 112.115462 123.906096 
L 112.144624 124.047432 
L 112.261272 126.097891 
L 112.494567 136.106654 
L 113.019483 160.222925 
L 113.106969 160.816536 
L 113.136131 160.699118 
L 113.252779 158.674752 
L 113.486075 148.557269 
L 113.981829 126.243576 
L 114.040153 125.771731 
L 114.098477 125.95873 
L 114.215125 128.250547 
L 114.44842 138.844224 
L 114.915012 158.948726 
L 114.973336 159.22705 
L 115.002498 159.109632 
L 115.119146 156.985243 
L 115.352442 146.500286 
L 115.789872 127.654762 
L 115.848196 127.311206 
L 115.877358 127.404706 
L 115.994006 129.481258 
L 116.227301 140.005354 
L 116.635569 157.498402 
L 116.693893 157.88327 
L 116.723055 157.804992 
L 116.810541 156.506875 
L 117.014675 148.31591 
L 117.481267 128.755008 
L 117.510429 128.633242 
L 117.539591 128.698474 
L 117.627077 129.985718 
L 117.831211 138.237566 
L 118.26864 156.561235 
L 118.297802 156.719966 
L 118.356126 156.465562 
L 118.472774 153.788875 
L 118.764394 139.342162 
L 119.056014 129.811766 
L 119.085176 129.77915 
L 119.172662 130.835909 
L 119.347634 137.369981 
L 119.814226 155.724091 
L 119.87255 155.417501 
L 119.989198 152.562514 
L 120.543275 130.75763 
L 120.630761 131.625216 
L 120.805733 137.994034 
L 121.243163 154.847808 
L 121.301487 154.523822 
L 121.418135 151.573162 
L 121.943051 131.633914 
L 122.001374 132.157944 
L 122.147184 136.708963 
L 122.613776 154.065024 
L 122.701262 152.925638 
L 122.905396 144.588989 
L 123.226178 132.514546 
L 123.25534 132.394954 
L 123.284502 132.490627 
L 123.371988 134.023579 
L 123.605284 144.375898 
L 123.867742 153.295286 
L 123.896903 153.386611 
L 123.926065 153.260496 
L 124.042713 150.701227 
L 124.509305 133.090762 
L 124.596791 133.882243 
L 124.771763 140.348909 
L 125.121707 152.764733 
L 125.180031 152.408131 
L 125.325841 148.04411 
L 125.734109 133.710466 
L 125.821595 134.930304 
L 126.025728 143.38872 
L 126.288186 152.153726 
L 126.317348 152.201563 
L 126.404834 151.003469 
L 126.608968 142.584192 
L 126.871426 134.267112 
L 126.900588 134.299728 
L 126.988074 135.739181 
L 127.250532 147.069979 
L 127.454666 151.690579 
L 127.542152 150.42073 
L 127.775447 140.601139 
L 128.008743 134.782445 
L 128.096229 136.121875 
L 128.329525 145.947989 
L 128.533659 151.247002 
L 128.591983 150.831691 
L 128.737793 146.254579 
L 129.058575 135.232546 
L 129.087737 135.267336 
L 129.175223 136.750277 
L 129.583491 150.818645 
L 129.670977 149.957582 
L 129.845948 143.375674 
L 130.108406 135.636984 
L 130.16673 136.15884 
L 130.31254 140.938171 
L 130.60416 150.43595 
L 130.662484 150.075 
L 130.808294 145.565294 
L 131.099914 136.034899 
L 131.129076 136.080562 
L 131.216562 137.62656 
L 131.595668 150.088046 
L 131.683153 149.085648 
L 131.916449 139.968389 
L 132.091421 136.391501 
L 132.178907 137.722234 
L 132.558013 149.764061 
L 132.645499 148.635547 
L 133.024605 136.704614 
L 133.112091 137.796163 
L 133.491197 149.45747 
L 133.578682 148.244155 
L 133.928626 137.032949 
L 134.016112 137.815733 
L 134.220246 145.339157 
L 134.395218 149.179147 
L 134.42438 149.011718 
L 134.541028 146.115418 
L 134.832648 137.289528 
L 134.86181 137.40912 
L 134.978458 140.157562 
L 135.270078 148.920394 
L 135.29924 148.800802 
L 135.415888 146.043662 
L 135.707507 137.556979 
L 135.736669 137.726582 
L 135.853317 140.644627 
L 136.115775 148.652942 
L 136.144937 148.637722 
L 136.232423 147.130862 
L 136.553205 137.798338 
L 136.611529 138.36803 
L 136.786501 144.271526 
L 136.961473 148.448549 
L 136.990635 148.35505 
L 137.107283 145.682712 
L 137.369741 138.033173 
L 137.398903 138.102754 
L 137.486388 139.761821 
L 137.778008 148.235458 
L 137.836332 147.802752 
L 138.011304 142.155835 
L 138.186276 138.241915 
L 138.215438 138.391949 
L 138.332086 141.23389 
L 138.594544 148.011494 
L 138.68203 146.552472 
L 138.97365 138.44196 
L 139.031974 138.959467 
L 139.236108 145.621829 
L 139.352755 147.839717 
L 139.381917 147.789706 
L 139.469403 146.176301 
L 139.731861 138.6594 
L 139.790185 138.9312 
L 139.935995 143.158234 
L 140.140129 147.644021 
L 140.227615 146.167603 
L 140.490073 138.829003 
L 140.548397 139.137768 
L 140.694207 143.384371 
L 140.869179 147.504859 
L 140.898341 147.420058 
L 141.014989 144.786859 
L 141.248285 138.981211 
L 141.277446 139.161686 
L 141.394094 142.057987 
L 141.598228 147.339605 
L 141.62739 147.291768 
L 141.714876 145.689235 
L 141.977334 139.144291 
L 142.006496 139.353034 
L 142.152306 143.330011 
L 142.327278 147.204792 
L 142.35644 147.067805 
L 142.473088 144.31284 
L 142.677222 139.285627 
L 142.706384 139.383475 
L 142.823032 142.021022 
L 143.027166 147.061282 
L 143.056328 146.974306 
L 143.172976 144.373723 
L 143.377109 139.424789 
L 143.406271 139.531334 
L 143.522919 142.179754 
L 143.727053 146.932992 
L 143.756215 146.780784 
L 143.872863 144.012773 
L 144.076997 139.574822 
L 144.106159 139.80096 
L 144.251969 143.723578 
L 144.397779 146.798179 
L 144.426941 146.732947 
L 144.543589 144.212818 
L 144.747723 139.69224 
L 144.776885 139.887936 
L 144.922695 143.697485 
L 145.068505 146.682936 
L 145.097667 146.598134 
L 145.214314 144.034517 
L 145.389286 139.837925 
L 145.418448 139.840099 
L 145.505934 141.314342 
L 145.73923 146.563344 
L 145.768392 146.356776 
L 145.914202 142.571146 
L 146.060012 139.924901 
L 146.089174 140.098853 
L 146.234984 143.78881 
L 146.380794 146.463322 
L 146.409956 146.300242 
L 146.526604 143.57137 
L 146.701576 140.033621 
L 146.730738 140.211922 
L 146.876548 143.875786 
L 147.022358 146.350253 
L 147.05152 146.137162 
L 147.197329 142.416763 
L 147.313977 140.16191 
L 147.372301 140.442408 
L 147.634759 146.263277 
L 147.722245 145.254355 
L 147.955541 140.240189 
L 147.984703 140.43371 
L 148.130513 144.054086 
L 148.247161 146.16108 
L 148.276323 146.10672 
L 148.392971 143.701834 
L 148.567943 140.338037 
L 148.597105 140.535907 
L 148.742915 144.125842 
L 148.859563 146.080627 
L 148.888725 145.980605 
L 149.005372 143.475696 
L 149.151182 140.440234 
L 149.180344 140.464152 
L 149.26783 141.951442 
L 149.471964 145.980605 
L 149.501126 145.754467 
L 149.763584 140.511989 
L 149.85107 141.75792 
L 150.055204 145.913198 
L 150.084366 145.74577 
L 150.230176 142.318915 
L 150.346824 140.590267 
L 150.375986 140.755522 
L 150.521796 144.162806 
L 150.638444 145.832746 
L 150.667606 145.65227 
L 150.842578 141.544829 
L 150.930063 140.681592 
L 150.959225 140.896858 
L 151.192521 145.734898 
L 151.280007 144.971683 
L 151.484141 140.748998 
L 151.542465 141.153437 
L 151.775761 145.689235 
L 151.834085 145.126066 
L 152.038219 140.844672 
L 152.096543 141.109949 
L 152.329839 145.624003 
L 152.388163 145.134763 
L 152.621459 140.916427 
L 152.650621 141.168658 
L 152.883916 145.556597 
L 152.94224 145.023869 
L 153.146374 140.96209 
L 153.204698 141.318691 
L 153.437994 145.47397 
L 153.496318 144.789034 
L 153.700452 141.018624 
L 153.729614 141.186053 
L 153.96291 145.432656 
L 154.050396 144.393293 
L 154.225368 141.081682 
L 154.283692 141.496992 
L 154.487826 145.367424 
L 154.54615 144.991253 
L 154.750284 141.146914 
L 154.808607 141.510038 
L 155.012741 145.31089 
L 155.071065 144.934718 
L 155.275199 141.196925 
L 155.333523 141.612235 
L 155.537657 145.265227 
L 155.595981 144.786859 
L 155.800115 141.253459 
L 155.858439 141.814454 
L 156.062573 145.193472 
L 156.091735 144.969509 
L 156.295869 141.314342 
L 156.383355 142.144963 
L 156.558327 145.16303 
L 156.587489 145.032566 
L 156.820784 141.373051 
L 156.879108 142.034069 
L 157.05408 145.110845 
L 157.112404 144.708581 
L 157.316538 141.414365 
L 157.374862 142.02972 
L 157.549834 145.063008 
L 157.608158 144.665093 
L 157.812292 141.468725 
L 157.841454 141.688339 
L 158.045588 145.021694 
L 158.103912 144.541152 
L 158.278884 141.510038 
L 158.337208 141.829675 
L 158.541342 144.960811 
L 158.599666 144.328061 
L 158.774637 141.542654 
L 158.803799 141.690514 
L 159.007933 144.934718 
L 159.066257 144.51071 
L 159.241229 141.592666 
L 159.299553 141.938395 
L 159.474525 144.87601 
L 159.532849 144.591163 
L 159.707821 141.653549 
L 159.766145 141.897082 
L 159.970279 144.830347 
L 159.999441 144.602035 
L 160.203575 141.688339 
L 160.261899 142.345008 
L 160.436871 144.791208 
L 160.466033 144.558547 
L 160.641004 141.727478 
L 160.699328 141.988406 
L 160.8743 144.76729 
L 160.932624 144.458525 
L 161.107596 141.744874 
L 161.16592 142.121045 
L 161.340892 144.745546 
L 161.399216 144.291096 
L 161.574188 141.781838 
L 161.60335 141.951442 
L 161.807484 144.684662 
L 161.865808 144.036691 
L 162.011618 141.818803 
L 162.069942 142.168882 
L 162.244914 144.678139 
L 162.303238 144.18455 
L 162.47821 141.870989 
L 162.507372 142.092778 
L 162.682343 144.643349 
L 162.740667 144.254131 
L 162.915639 141.888384 
L 162.944801 142.073208 
L 163.119773 144.608558 
L 163.178097 144.262829 
L 163.353069 141.918826 
L 163.382231 142.094952 
L 163.557203 144.580291 
L 163.615527 144.221515 
L 163.790499 141.957965 
L 163.819661 142.155835 
L 163.994633 144.554198 
L 164.052957 144.125842 
L 164.198767 141.990581 
L 164.257091 142.260206 
L 164.432063 144.517234 
L 164.461224 144.343282 
L 164.636196 142.001453 
L 164.69452 142.423286 
L 164.84033 144.486792 
L 164.898654 144.180202 
L 165.073626 142.051464 
L 165.102788 142.264555 
L 165.27776 144.465048 
L 165.336084 143.938843 
L 165.481894 142.055813 
L 165.511056 142.181928 
L 165.686028 144.445478 
L 165.744352 144.051912 
L 165.890162 142.088429 
L 165.948486 142.42981 
L 166.094296 144.408514 
L 166.15262 144.108446 
L 166.29843 142.125394 
L 166.356754 142.397194 
L 166.502563 144.375898 
L 166.560887 144.119318 
L 166.706697 142.153661 
L 166.765021 142.408066 
L 166.910831 144.354154 
L 166.969155 144.091051 
L 167.114965 142.171056 
L 167.173289 142.453728 
L 167.319099 144.338933 
L 167.377423 144.027994 
L 167.523233 142.186277 
L 167.581557 142.53853 
L 167.727367 144.325886 
L 167.785691 143.921448 
L 167.931501 142.208021 
L 167.960663 142.342834 
L 168.135635 144.29327 
L 168.193959 143.764891 
L 168.310606 142.253683 
L 168.36893 142.473298 
L 168.51474 144.275875 
L 168.573064 143.960587 
L 168.718874 142.249334 
L 168.777198 142.664645 
L 168.923008 144.249782 
L 168.95217 144.080179 
L 169.09798 142.288474 
L 169.156304 142.542878 
L 169.302114 144.23891 
L 169.360438 143.854042 
L 169.506248 142.30152 
L 169.53541 142.473298 
L 169.68122 144.210643 
L 169.739544 143.925797 
L 169.885354 142.314566 
L 169.914516 142.440682 
L 170.060326 144.178027 
L 170.11865 143.956238 
L 170.264459 142.331962 
L 170.322783 142.727702 
L 170.468593 144.158458 
L 170.497755 143.958413 
L 170.643565 142.351531 
L 170.701889 142.738574 
L 170.818537 144.138888 
L 170.876861 143.93232 
L 171.022671 142.371101 
L 171.080995 142.782062 
L 171.197643 144.13019 
L 171.255967 143.880134 
L 171.401777 142.392845 
L 171.430939 142.542878 
L 171.576749 144.125842 
L 171.635073 143.795333 
L 171.780883 142.42981 
L 171.810045 142.625506 
L 171.955855 144.108446 
L 171.985017 143.977982 
L 172.130827 142.427635 
L 172.18915 142.747272 
L 172.305798 144.071482 
L 172.364122 143.862739 
L 172.509932 142.447205 
L 172.539094 142.599413 
L 172.684904 144.078005 
L 172.743228 143.699659 
L 172.859876 142.462426 
L 172.9182 142.758144 
L 173.034848 144.043214 
L 173.093172 143.825774 
L 173.238982 142.486344 
L 173.268144 142.655947 
L 173.413954 144.043214 
L 173.443116 143.906227 
L 173.588926 142.490693 
L 173.64725 142.875562 
L 173.763898 144.030168 
L 173.79306 143.947541 
L 173.93887 142.508088 
L 173.997194 142.81033 
L 174.113841 144.008424 
L 174.172165 143.740973 
L 174.288813 142.532006 
L 174.347137 142.773365 
L 174.463785 143.98668 
L 174.522109 143.764891 
L 174.638757 142.55375 
L 174.697081 142.762493 
L 174.813729 143.96711 
L 174.872053 143.764891 
L 174.988701 142.568971 
L 175.047025 142.773365 
L 175.163673 143.956238 
L 175.221997 143.745322 
L 175.338645 142.577669 
L 175.396969 142.803806 
L 175.513617 143.95189 
L 175.571941 143.704008 
L 175.688589 142.582018 
L 175.746913 142.855992 
L 175.863561 143.945366 
L 175.921885 143.64095 
L 176.038532 142.590715 
L 176.067694 142.679866 
L 176.213504 143.934494 
L 176.271828 143.553974 
L 176.388476 142.610285 
L 176.417638 142.749446 
L 176.563448 143.906227 
L 176.59261 143.738798 
L 176.709258 142.632029 
L 176.767582 142.847294 
L 176.88423 143.906227 
L 176.942554 143.623555 
L 177.059202 142.629854 
L 177.088364 142.727702 
L 177.234174 143.891006 
L 177.263336 143.751845 
L 177.379984 142.66247 
L 177.438308 142.847294 
L 177.554956 143.882309 
L 177.61328 143.608334 
L 177.729928 142.653773 
L 177.75909 142.760318 
L 177.9049 143.860565 
L 177.934062 143.704008 
L 178.050709 142.673342 
L 178.109033 142.914701 
L 178.225681 143.862739 
L 178.254843 143.764891 
L 178.400653 142.690738 
L 178.429815 142.847294 
L 178.546463 143.847518 
L 178.604787 143.588765 
L 178.721435 142.690738 
L 178.750597 142.805981 
L 178.867245 143.8236 
L 178.925569 143.636602 
L 179.042217 142.699435 
L 179.071379 142.782062 
L 179.217189 143.814902 
L 179.246351 143.662694 
L 179.362999 142.712482 
L 179.421323 142.990805 
L 179.537971 143.810554 
L 179.567133 143.673566 
L 179.683781 142.725528 
L 179.742105 142.982107 
L 179.858753 143.801856 
L 179.887914 143.669218 
L 180.004562 142.734226 
L 180.062886 142.992979 
L 180.179534 143.790984 
L 180.208696 143.653997 
L 180.325344 142.742923 
L 180.383668 143.016898 
L 180.500316 143.775763 
L 180.529478 143.62573 
L 180.646126 142.751621 
L 180.675288 142.834248 
L 180.791936 143.764891 
L 180.85026 143.582242 
L 180.966908 142.764667 
L 180.99607 142.873387 
L 181.112718 143.767066 
L 181.171042 143.525707 
L 181.28769 142.784237 
L 181.316852 142.929922 
L 181.4335 143.760542 
L 181.462662 143.673566 
L 181.57931 142.788586 
L 181.637634 143.003851 
L 181.754282 143.740973 
L 181.783444 143.603986 
L 181.900091 142.79076 
L 181.929253 142.877736 
L 182.045901 143.738798 
L 182.104225 143.512661 
L 182.220873 142.814678 
L 182.250035 142.962538 
L 182.366683 143.732275 
L 182.395845 143.62573 
L 182.512493 142.808155 
L 182.570817 143.075606 
L 182.658303 143.717054 
L 182.716627 143.519184 
L 182.833275 142.832074 
L 182.862437 142.971235 
L 182.979085 143.71488 
L 183.008247 143.60616 
L 183.124895 142.82555 
L 183.183219 143.106048 
L 183.270705 143.706182 
L 183.329029 143.47787 
L 183.416515 142.847294 
L 183.474839 143.023421 
L 183.591487 143.686613 
L 183.620649 143.549626 
L 183.737297 142.847294 
L 183.766458 142.964712 
L 183.883106 143.693136 
L 183.912268 143.597462 
L 184.028916 142.849469 
L 184.08724 143.125618 
L 184.174726 143.684438 
L 184.23305 143.440906 
L 184.320536 142.862515 
L 184.37886 143.075606 
L 184.466346 143.669218 
L 184.52467 143.482219 
L 184.612156 142.87991 
L 184.67048 143.04299 
L 184.787128 143.651822 
L 184.81629 143.508312 
L 184.932938 142.888608 
L 184.9621 143.023421 
L 185.078748 143.651822 
L 185.10791 143.523533 
L 185.224558 142.890782 
L 185.25372 143.014723 
L 185.370368 143.647474 
L 185.39953 143.527882 
L 185.516178 142.897306 
L 185.54534 143.012549 
L 185.661988 143.64095 
L 185.691149 143.525707 
L 185.807797 142.903829 
L 185.836959 143.021246 
L 185.953607 143.632253 
L 185.982769 143.512661 
L 186.099417 142.914701 
L 186.128579 143.036467 
L 186.245227 143.621381 
L 186.274389 143.493091 
L 186.391037 142.927747 
L 186.420199 143.06256 
L 186.507685 143.614858 
L 186.566009 143.464824 
L 186.653495 142.925573 
L 186.711819 143.095176 
L 186.799305 143.617032 
L 186.857629 143.425685 
L 186.945115 142.925573 
L 187.003439 143.138664 
L 187.090925 143.614858 
L 187.120087 143.5518 
L 187.236735 142.932096 
L 187.265897 143.010374 
L 187.382545 143.60616 
L 187.411707 143.510486 
L 187.528355 142.947317 
L 187.557517 143.058211 
L 187.674164 143.584416 
L 187.703326 143.453952 
L 187.790812 142.951666 
L 187.849136 143.121269 
L 187.936622 143.595288 
L 187.994946 143.384371 
L 188.082432 142.949491 
L 188.111594 143.023421 
L 188.228242 143.584416 
L 188.257404 143.488742 
L 188.374052 142.971235 
L 188.403214 143.090827 
L 188.4907 143.577893 
L 188.549024 143.410464 
L 188.63651 142.962538 
L 188.694834 143.177803 
L 188.78232 143.575718 
L 188.811482 143.493091 
L 188.92813 142.979933 
L 188.957292 143.090827 
L 189.044778 143.564846 
L 189.103102 143.406115 
L 189.190588 142.975584 
L 189.21975 143.032118 
L 189.336398 143.562672 
L 189.36556 143.473522 
L 189.482208 142.997328 
L 189.51137 143.119094 
L 189.598855 143.558323 
L 189.657179 143.371325 
L 189.744665 142.986456 
L 189.773827 143.064734 
L 189.890475 143.540928 
L 189.919637 143.430034 
L 190.007123 142.995154 
L 190.065447 143.173454 
L 190.152933 143.549626 
L 190.182095 143.471347 
L 190.298743 143.012549 
L 190.327905 143.125618 
L 190.415391 143.543102 
L 190.473715 143.358278 
L 190.561201 143.006026 
L 190.590363 143.090827 
L 190.677849 143.530056 
L 190.736173 143.395243 
L 190.823659 143.0082 
L 190.852821 143.066909 
L 190.969469 143.525707 
L 190.998631 143.425685 
L 191.086117 143.016898 
L 191.144441 143.186501 
L 191.231927 143.525707 
L 191.261089 143.445254 
L 191.348575 143.025595 
L 191.406899 143.164757 
L 191.494384 143.523533 
L 191.523546 143.458301 
L 191.640194 143.040816 
L 191.669356 143.149536 
L 191.756842 143.519184 
L 191.786004 143.464824 
L 191.902652 143.040816 
L 191.931814 143.140838 
L 192.0193 143.514835 
L 192.077624 143.330011 
L 192.16511 143.04299 
L 192.194272 143.138664 
L 192.281758 143.508312 
L 192.340082 143.332186 
L 192.427568 143.047339 
L 192.45673 143.140838 
L 192.544216 143.503963 
L 192.60254 143.327837 
L 192.690026 143.053862 
L 192.719188 143.149536 
L 192.806674 143.499614 
L 192.835836 143.451778 
L 192.952484 143.060386 
L 192.981646 143.160408 
L 193.069132 143.495266 
L 193.098294 143.438731 
L 193.18578 143.06256 
L 193.244104 143.177803 
L 193.33159 143.490917 
L 193.360752 143.42351 
L 193.448237 143.06256 
L 193.506561 143.199547 
L 193.594047 143.482219 
L 193.623209 143.401766 
L 193.710695 143.06256 
L 193.769019 143.22564 
L 193.856505 143.471347 
L 193.885667 143.375674 
L 193.973153 143.066909 
L 194.002315 143.125618 
L 194.089801 143.473522 
L 194.148125 143.345232 
L 194.235611 143.075606 
L 194.264773 143.153885 
L 194.352259 143.473522 
L 194.410583 143.308267 
L 194.468907 143.084304 
L 194.527231 143.19085 
L 194.614717 143.466998 
L 194.643879 143.397418 
L 194.731365 143.079955 
L 194.789689 143.232163 
L 194.877175 143.451778 
L 194.906337 143.358278 
L 194.993823 143.086478 
L 195.022985 143.15171 
L 195.110471 143.460475 
L 195.168795 143.310442 
L 195.227119 143.095176 
L 195.285443 143.197373 
L 195.372928 143.453952 
L 195.40209 143.384371 
L 195.489576 143.090827 
L 195.518738 143.134315 
L 195.606224 143.449603 
L 195.664548 143.33436 
L 195.752034 143.101699 
L 195.781196 143.182152 
L 195.868682 143.449603 
L 195.897844 143.393069 
L 195.98533 143.099525 
L 196.043654 143.238686 
L 196.101978 143.438731 
L 196.160302 143.340883 
L 196.247788 143.108222 
L 196.27695 143.179978 
L 196.364436 143.44308 
L 196.393598 143.390894 
L 196.481084 143.108222 
L 196.539408 143.243035 
L 196.597732 143.434382 
L 196.656056 143.332186 
L 196.743542 143.119094 
L 196.772704 143.193024 
L 196.86019 143.434382 
L 196.889352 143.375674 
L 196.976838 143.114746 
L 197.006 143.156059 
L 197.093486 143.430034 
L 197.15181 143.310442 
L 197.210134 143.123443 
L 197.268457 143.216942 
L 197.355943 143.421336 
L 197.385105 143.349581 
L 197.472591 143.123443 
L 197.501753 143.182152 
L 197.589239 143.425685 
L 197.618401 143.377848 
L 197.705887 143.125618 
L 197.764211 143.253907 
L 197.822535 143.419162 
L 197.880859 143.310442 
L 197.939183 143.134315 
L 197.997507 143.223466 
L 198.084993 143.410464 
L 198.114155 143.338709 
L 198.201641 143.13649 
L 198.230803 143.199547 
L 198.318289 143.414813 
L 198.347451 143.360453 
L 198.434937 143.134315 
L 198.464099 143.179978 
L 198.551585 143.412638 
L 198.609909 143.284349 
L 198.668233 143.138664 
L 198.726557 143.256082 
L 198.784881 143.40829 
L 198.843205 143.303918 
L 198.901529 143.145187 
L 198.959853 143.236512 
L 199.047339 143.393069 
L 199.076501 143.319139 
L 199.163987 143.153885 
L 199.193149 143.223466 
L 199.280634 143.395243 
L 199.309796 143.332186 
L 199.397282 143.15171 
L 199.426444 143.212594 
L 199.51393 143.397418 
L 199.543092 143.340883 
L 199.630578 143.153885 
L 199.65974 143.20607 
L 199.747226 143.395243 
L 199.776388 143.345232 
L 199.863874 143.153885 
L 199.893036 143.201722 
L 199.980522 143.393069 
L 200.009684 143.349581 
L 200.09717 143.156059 
L 200.126332 143.199547 
L 200.213818 143.390894 
L 200.24298 143.349581 
L 200.330466 143.158234 
L 200.359628 143.199547 
L 200.447114 143.38872 
L 200.476276 143.349581 
L 200.563762 143.162582 
L 200.592924 143.201722 
L 200.68041 143.386546 
L 200.709572 143.345232 
L 200.797058 143.164757 
L 200.82622 143.20607 
L 200.913706 143.384371 
L 200.942868 143.340883 
L 201.030354 143.169106 
L 201.059516 143.210419 
L 201.147001 143.380022 
L 201.176163 143.336534 
L 201.263649 143.17128 
L 201.292811 143.216942 
L 201.380297 143.375674 
L 201.409459 143.327837 
L 201.496945 143.175629 
L 201.526107 143.227814 
L 201.613593 143.371325 
L 201.642755 143.319139 
L 201.730241 143.182152 
L 201.759403 143.236512 
L 201.846889 143.364802 
L 201.876051 143.306093 
L 201.963537 143.19085 
L 201.992699 143.249558 
L 202.051023 143.36915 
L 202.109347 143.293046 
L 202.167671 143.179978 
L 202.225995 143.264779 
L 202.284319 143.36915 
L 202.342643 143.277826 
L 202.400967 143.182152 
L 202.459291 143.28 
L 202.517615 143.366976 
L 202.546777 143.332186 
L 202.634263 143.186501 
L 202.663425 143.22564 
L 202.750911 143.360453 
L 202.780073 143.31479 
L 202.867559 143.193024 
L 202.896721 143.243035 
L 202.984207 143.351755 
L 203.013369 143.297395 
L 203.071692 143.19085 
L 203.130016 143.262605 
L 203.18834 143.360453 
L 203.246664 143.277826 
L 203.304988 143.19085 
L 203.363312 143.284349 
L 203.421636 143.356104 
L 203.450798 143.321314 
L 203.538284 143.197373 
L 203.567446 143.240861 
L 203.654932 143.347406 
L 203.684094 143.29957 
L 203.77158 143.208245 
L 203.800742 143.262605 
L 203.859066 143.35393 
L 203.91739 143.275651 
L 203.975714 143.197373 
L 204.034038 143.286523 
L 204.092362 143.349581 
L 204.121524 143.312616 
L 204.20901 143.20607 
L 204.238172 143.249558 
L 204.325658 143.338709 
L 204.35482 143.288698 
L 204.413144 143.201722 
L 204.471468 143.273477 
L 204.529792 143.347406 
L 204.588116 143.264779 
L 204.64644 143.20607 
L 204.675602 143.243035 
L 204.763088 143.338709 
L 204.79225 143.295221 
L 204.879736 143.219117 
L 204.908898 143.269128 
L 204.967222 143.343058 
L 205.025545 143.269128 
L 205.083869 143.210419 
L 205.113031 143.240861 
L 205.200517 143.336534 
L 205.229679 143.297395 
L 205.317165 143.223466 
L 205.346327 143.269128 
L 205.404651 143.340883 
L 205.462975 143.269128 
L 205.521299 143.212594 
L 205.550461 143.24521 
L 205.637947 143.332186 
L 205.667109 143.293046 
L 205.754595 143.227814 
L 205.783757 143.273477 
L 205.842081 143.336534 
L 205.900405 143.264779 
L 205.958729 143.219117 
L 205.987891 143.251733 
L 206.075377 143.325662 
L 206.104539 143.284349 
L 206.162863 143.216942 
L 206.221187 143.282174 
L 206.279511 143.332186 
L 206.337835 143.256082 
L 206.396159 143.22564 
L 206.425321 143.262605 
L 206.512807 143.316965 
L 206.541969 143.273477 
L 206.600293 143.221291 
L 206.658617 143.293046 
L 206.716941 143.325662 
L 206.746103 143.290872 
L 206.833589 143.236512 
L 206.862751 143.275651 
L 206.921074 143.327837 
L 206.979398 143.26043 
L 207.037722 143.229989 
L 207.066884 143.262605 
L 207.15437 143.312616 
L 207.183532 143.273477 
L 207.241856 143.22564 
L 207.30018 143.293046 
L 207.358504 143.319139 
L 207.387666 143.286523 
L 207.475152 143.240861 
L 207.504314 143.28 
L 207.562638 143.323488 
L 207.620962 143.256082 
L 207.679286 143.236512 
L 207.708448 143.269128 
L 207.795934 143.306093 
L 207.825096 143.266954 
L 207.88342 143.232163 
L 207.941744 143.29957 
L 208.02923 143.275651 
L 208.116716 143.253907 
L 208.145878 143.290872 
L 208.233364 143.284349 
L 208.262526 143.249558 
L 208.350012 143.282174 
L 208.437498 143.290872 
L 208.46666 143.256082 
L 208.554146 143.275651 
L 208.641632 143.297395 
L 208.670794 143.262605 
L 208.787442 143.303918 
L 208.904089 143.240861 
L 364.774899 143.216942 
L 364.862385 143.053862 
L 364.920709 143.58659 
L 364.979033 142.932096 
L 365.008195 143.817077 
L 365.066519 142.33631 
L 365.095681 143.312616 
L 365.124843 144.702058 
L 365.154005 142.562448 
L 365.183167 141.444806 
L 365.270652 139.389998 
L 365.328976 149.78363 
L 365.3873 133.843104 
L 365.416462 149.685782 
L 365.445624 154.94783 
L 365.53311 172.238659 
L 365.591434 96.195542 
L 365.649758 210.144974 
L 365.67892 88.952616 
L 365.708082 62.811979 
L 365.737244 238.660926 
L 365.787615 -1 
M 365.806637 -1 
L 365.82473 131.381683 
L 365.853727 -1 
M 365.874076 -1 
L 365.883054 -0.66528 
L 365.883081 -1 
M 366.084048 -1 
L 366.087188 178.422653 
L 366.088919 -1 
" style="fill:none;stroke:#1f77b4;stroke-linecap:square;stroke-width:1.5;"/>
   </g>
   <g id="line2d_14">
    <path clip-path="url(#p11262f2a80)" d="M 69.218182 252 
L 73.563318 251.892659 
L 74.554825 251.638376 
L 75.283875 251.231328 
L 75.925438 250.613081 
L 76.53784 249.68796 
L 77.12108 248.386147 
L 77.733481 246.430274 
L 78.345883 243.691618 
L 78.987447 239.755736 
L 79.658172 234.190577 
L 80.35806 226.468195 
L 81.116272 215.513568 
L 81.932807 200.355826 
L 82.865991 178.674883 
L 84.119956 143.740973 
L 85.782189 97.911144 
L 86.452915 85.186555 
L 86.890345 80.357213 
L 87.181965 79.019957 
L 87.298612 78.946027 
L 87.327774 78.969946 
L 87.473584 79.356989 
L 87.70688 80.907336 
L 88.027662 84.962592 
L 88.43593 93.340555 
L 88.990008 110.024726 
L 89.806543 142.408066 
L 90.914699 185.06327 
L 91.38129 195.7374 
L 91.67291 198.716328 
L 91.789558 199.005523 
L 91.81872 198.994651 
L 91.906206 198.759816 
L 92.081178 197.3682 
L 92.343636 192.98461 
L 92.722742 182.088691 
L 93.276819 158.650834 
L 94.443299 107.743781 
L 94.793243 100.653062 
L 94.997376 99.50063 
L 95.0557 99.602827 
L 95.20151 100.71612 
L 95.434806 104.993165 
L 95.78475 116.6436 
L 96.397152 146.65032 
L 97.097039 177.692054 
L 97.417821 184.056523 
L 97.534469 184.624042 
L 97.563631 184.61317 
L 97.651117 184.202208 
L 97.826089 181.716869 
L 98.088547 174.076027 
L 98.525977 153.475762 
L 99.371674 113.434186 
L 99.634132 108.926654 
L 99.721618 108.713563 
L 99.75078 108.791842 
L 99.867428 109.846426 
L 100.071562 114.460502 
L 100.392344 127.737389 
L 101.442175 175.587235 
L 101.587985 176.752714 
L 101.617147 176.73097 
L 101.704633 176.150405 
L 101.879605 172.725725 
L 102.171225 161.192707 
L 103.191894 114.95844 
L 103.27938 114.423538 
L 103.337704 114.547478 
L 103.454352 115.943443 
L 103.658486 121.851288 
L 104.037592 141.138216 
L 104.620831 168.911827 
L 104.824965 171.56677 
L 104.883289 171.38412 
L 104.999937 169.762018 
L 105.204071 163.190981 
L 105.641501 139.444358 
L 106.078931 120.344429 
L 106.253903 118.433131 
L 106.312227 118.70928 
L 106.458037 121.368571 
L 106.720494 132.21013 
L 107.478706 167.276678 
L 107.566192 167.81593 
L 107.595354 167.750698 
L 107.712002 166.259059 
L 107.916136 159.346642 
L 108.790995 121.451198 
L 108.820157 121.48164 
L 108.907643 122.357923 
L 109.082615 127.422101 
L 109.461721 147.765787 
L 109.840827 163.804162 
L 109.957475 164.947896 
L 109.986637 164.887013 
L 110.074123 163.88244 
L 110.249095 158.429045 
L 111.06563 123.821294 
L 111.123954 124.177896 
L 111.269764 127.522123 
L 111.561384 141.903605 
L 111.998814 161.697168 
L 112.115462 162.653904 
L 112.144624 162.512568 
L 112.261272 160.462109 
L 112.494567 150.453346 
L 113.019483 126.337075 
L 113.106969 125.743464 
L 113.136131 125.860882 
L 113.252779 127.885248 
L 113.486075 138.002731 
L 113.981829 160.316424 
L 114.040153 160.788269 
L 114.098477 160.60127 
L 114.215125 158.309453 
L 114.44842 147.715776 
L 114.915012 127.611274 
L 114.973336 127.33295 
L 115.002498 127.450368 
L 115.119146 129.574757 
L 115.352442 140.059714 
L 115.789872 158.905238 
L 115.848196 159.248794 
L 115.877358 159.155294 
L 115.994006 157.078742 
L 116.227301 146.554646 
L 116.635569 129.061598 
L 116.693893 128.67673 
L 116.723055 128.755008 
L 116.810541 130.053125 
L 117.014675 138.24409 
L 117.481267 157.804992 
L 117.510429 157.926758 
L 117.539591 157.861526 
L 117.627077 156.574282 
L 117.831211 148.322434 
L 118.26864 129.998765 
L 118.297802 129.840034 
L 118.356126 130.094438 
L 118.472774 132.771125 
L 118.764394 147.217838 
L 119.056014 156.748234 
L 119.085176 156.78085 
L 119.172662 155.724091 
L 119.347634 149.190019 
L 119.814226 130.835909 
L 119.87255 131.142499 
L 119.989198 133.997486 
L 120.543275 155.80237 
L 120.630761 154.934784 
L 120.805733 148.565966 
L 121.243163 131.712192 
L 121.301487 132.036178 
L 121.418135 134.986838 
L 121.943051 154.926086 
L 122.001374 154.402056 
L 122.147184 149.851037 
L 122.613776 132.494976 
L 122.701262 133.634362 
L 122.905396 141.971011 
L 123.226178 154.045454 
L 123.25534 154.165046 
L 123.284502 154.069373 
L 123.371988 152.536421 
L 123.605284 142.184102 
L 123.867742 133.264714 
L 123.896903 133.173389 
L 123.926065 133.299504 
L 124.042713 135.858773 
L 124.509305 153.469238 
L 124.596791 152.677757 
L 124.771763 146.211091 
L 125.121707 133.795267 
L 125.180031 134.151869 
L 125.325841 138.51589 
L 125.734109 152.849534 
L 125.821595 151.629696 
L 126.025728 143.17128 
L 126.288186 134.406274 
L 126.317348 134.358437 
L 126.404834 135.556531 
L 126.608968 143.975808 
L 126.871426 152.292888 
L 126.900588 152.260272 
L 126.988074 150.820819 
L 127.250532 139.490021 
L 127.454666 134.869421 
L 127.542152 136.13927 
L 127.775447 145.958861 
L 128.008743 151.777555 
L 128.096229 150.438125 
L 128.329525 140.612011 
L 128.533659 135.312998 
L 128.591983 135.728309 
L 128.737793 140.305421 
L 129.058575 151.327454 
L 129.087737 151.292664 
L 129.175223 149.809723 
L 129.583491 135.741355 
L 129.670977 136.602418 
L 129.845948 143.184326 
L 130.108406 150.923016 
L 130.16673 150.40116 
L 130.31254 145.621829 
L 130.60416 136.12405 
L 130.662484 136.485 
L 130.808294 140.994706 
L 131.099914 150.525101 
L 131.129076 150.479438 
L 131.216562 148.93344 
L 131.595668 136.471954 
L 131.683153 137.474352 
L 131.916449 146.591611 
L 132.091421 150.168499 
L 132.178907 148.837766 
L 132.558013 136.795939 
L 132.645499 137.924453 
L 133.024605 149.855386 
L 133.112091 148.763837 
L 133.491197 137.10253 
L 133.578682 138.315845 
L 133.928626 149.527051 
L 134.016112 148.744267 
L 134.220246 141.220843 
L 134.395218 137.380853 
L 134.42438 137.548282 
L 134.541028 140.444582 
L 134.832648 149.270472 
L 134.86181 149.15088 
L 134.978458 146.400264 
L 135.270078 137.639606 
L 135.29924 137.759198 
L 135.415888 140.516338 
L 135.707507 149.003021 
L 135.736669 148.833418 
L 135.853317 145.915373 
L 136.115775 137.907058 
L 136.144937 137.922278 
L 136.232423 139.429138 
L 136.553205 148.761662 
L 136.611529 148.19197 
L 136.786501 142.288474 
L 136.961473 138.111451 
L 136.990635 138.20495 
L 137.107283 140.877288 
L 137.369741 148.526827 
L 137.398903 148.457246 
L 137.486388 146.798179 
L 137.778008 138.324542 
L 137.836332 138.757248 
L 138.011304 144.404165 
L 138.186276 148.318085 
L 138.215438 148.168051 
L 138.332086 145.32611 
L 138.594544 138.548506 
L 138.68203 140.007528 
L 138.97365 148.11804 
L 139.031974 147.600533 
L 139.236108 140.938171 
L 139.352755 138.720283 
L 139.381917 138.770294 
L 139.469403 140.383699 
L 139.731861 147.9006 
L 139.790185 147.6288 
L 139.935995 143.401766 
L 140.140129 138.915979 
L 140.227615 140.392397 
L 140.490073 147.730997 
L 140.548397 147.422232 
L 140.694207 143.175629 
L 140.869179 139.055141 
L 140.898341 139.139942 
L 141.014989 141.773141 
L 141.248285 147.578789 
L 141.277446 147.398314 
L 141.394094 144.502013 
L 141.598228 139.220395 
L 141.62739 139.268232 
L 141.714876 140.870765 
L 141.977334 147.415709 
L 142.006496 147.206966 
L 142.152306 143.229989 
L 142.327278 139.355208 
L 142.35644 139.492195 
L 142.473088 142.24716 
L 142.677222 147.274373 
L 142.706384 147.176525 
L 142.823032 144.538978 
L 143.027166 139.498718 
L 143.056328 139.585694 
L 143.172976 142.186277 
L 143.377109 147.135211 
L 143.406271 147.028666 
L 143.522919 144.380246 
L 143.727053 139.627008 
L 143.756215 139.779216 
L 143.872863 142.547227 
L 144.076997 146.985178 
L 144.106159 146.75904 
L 144.251969 142.836422 
L 144.397779 139.761821 
L 144.426941 139.827053 
L 144.543589 142.347182 
L 144.747723 146.86776 
L 144.776885 146.672064 
L 144.922695 142.862515 
L 145.068505 139.877064 
L 145.097667 139.961866 
L 145.214314 142.525483 
L 145.389286 146.722075 
L 145.418448 146.719901 
L 145.505934 145.245658 
L 145.73923 139.996656 
L 145.768392 140.203224 
L 145.914202 143.988854 
L 146.060012 146.635099 
L 146.089174 146.461147 
L 146.234984 142.77119 
L 146.380794 140.096678 
L 146.409956 140.259758 
L 146.526604 142.98863 
L 146.701576 146.526379 
L 146.730738 146.348078 
L 146.876548 142.684214 
L 147.022358 140.209747 
L 147.05152 140.422838 
L 147.197329 144.143237 
L 147.313977 146.39809 
L 147.372301 146.117592 
L 147.634759 140.296723 
L 147.722245 141.305645 
L 147.955541 146.319811 
L 147.984703 146.12629 
L 148.130513 142.505914 
L 148.247161 140.39892 
L 148.276323 140.45328 
L 148.392971 142.858166 
L 148.567943 146.221963 
L 148.597105 146.024093 
L 148.742915 142.434158 
L 148.859563 140.479373 
L 148.888725 140.579395 
L 149.005372 143.084304 
L 149.151182 146.119766 
L 149.180344 146.095848 
L 149.26783 144.608558 
L 149.471964 140.579395 
L 149.501126 140.805533 
L 149.763584 146.048011 
L 149.85107 144.80208 
L 150.055204 140.646802 
L 150.084366 140.81423 
L 150.230176 144.241085 
L 150.346824 145.969733 
L 150.375986 145.804478 
L 150.521796 142.397194 
L 150.638444 140.727254 
L 150.667606 140.90773 
L 150.842578 145.015171 
L 150.930063 145.878408 
L 150.959225 145.663142 
L 151.192521 140.825102 
L 151.280007 141.588317 
L 151.484141 145.811002 
L 151.542465 145.406563 
L 151.775761 140.870765 
L 151.834085 141.433934 
L 152.038219 145.715328 
L 152.096543 145.450051 
L 152.329839 140.935997 
L 152.388163 141.425237 
L 152.621459 145.643573 
L 152.650621 145.391342 
L 152.883916 141.003403 
L 152.94224 141.536131 
L 153.146374 145.59791 
L 153.204698 145.241309 
L 153.437994 141.08603 
L 153.496318 141.770966 
L 153.700452 145.541376 
L 153.729614 145.373947 
L 153.96291 141.127344 
L 154.050396 142.166707 
L 154.225368 145.478318 
L 154.283692 145.063008 
L 154.487826 141.192576 
L 154.54615 141.568747 
L 154.750284 145.413086 
L 154.808607 145.049962 
L 155.012741 141.24911 
L 155.071065 141.625282 
L 155.275199 145.363075 
L 155.333523 144.947765 
L 155.537657 141.294773 
L 155.595981 141.773141 
L 155.800115 145.306541 
L 155.858439 144.745546 
L 156.062573 141.366528 
L 156.091735 141.590491 
L 156.295869 145.245658 
L 156.383355 144.415037 
L 156.558327 141.39697 
L 156.587489 141.527434 
L 156.820784 145.186949 
L 156.879108 144.525931 
L 157.05408 141.449155 
L 157.112404 141.851419 
L 157.316538 145.145635 
L 157.374862 144.53028 
L 157.549834 141.496992 
L 157.608158 141.894907 
L 157.812292 145.091275 
L 157.841454 144.871661 
L 158.045588 141.538306 
L 158.103912 142.018848 
L 158.278884 145.049962 
L 158.337208 144.730325 
L 158.541342 141.599189 
L 158.599666 142.231939 
L 158.774637 145.017346 
L 158.803799 144.869486 
L 159.007933 141.625282 
L 159.066257 142.04929 
L 159.241229 144.967334 
L 159.299553 144.621605 
L 159.474525 141.68399 
L 159.532849 141.968837 
L 159.707821 144.906451 
L 159.766145 144.662918 
L 159.970279 141.729653 
L 159.999441 141.957965 
L 160.203575 144.871661 
L 160.261899 144.214992 
L 160.436871 141.768792 
L 160.466033 142.001453 
L 160.641004 144.832522 
L 160.699328 144.571594 
L 160.8743 141.79271 
L 160.932624 142.101475 
L 161.107596 144.815126 
L 161.16592 144.438955 
L 161.340892 141.814454 
L 161.399216 142.268904 
L 161.574188 144.778162 
L 161.60335 144.608558 
L 161.807484 141.875338 
L 161.865808 142.523309 
L 162.011618 144.741197 
L 162.069942 144.391118 
L 162.244914 141.881861 
L 162.303238 142.37545 
L 162.47821 144.689011 
L 162.507372 144.467222 
L 162.682343 141.916651 
L 162.740667 142.305869 
L 162.915639 144.671616 
L 162.944801 144.486792 
L 163.119773 141.951442 
L 163.178097 142.297171 
L 163.353069 144.641174 
L 163.382231 144.465048 
L 163.557203 141.979709 
L 163.615527 142.338485 
L 163.790499 144.602035 
L 163.819661 144.404165 
L 163.994633 142.005802 
L 164.052957 142.434158 
L 164.198767 144.569419 
L 164.257091 144.299794 
L 164.432063 142.042766 
L 164.461224 142.216718 
L 164.636196 144.558547 
L 164.69452 144.136714 
L 164.84033 142.073208 
L 164.898654 142.379798 
L 165.073626 144.508536 
L 165.102788 144.295445 
L 165.27776 142.094952 
L 165.336084 142.621157 
L 165.481894 144.504187 
L 165.511056 144.378072 
L 165.686028 142.114522 
L 165.744352 142.508088 
L 165.890162 144.471571 
L 165.948486 144.13019 
L 166.094296 142.151486 
L 166.15262 142.451554 
L 166.29843 144.434606 
L 166.356754 144.162806 
L 166.502563 142.184102 
L 166.560887 142.440682 
L 166.706697 144.406339 
L 166.765021 144.151934 
L 166.910831 142.205846 
L 166.969155 142.468949 
L 167.114965 144.388944 
L 167.173289 144.106272 
L 167.319099 142.221067 
L 167.377423 142.532006 
L 167.523233 144.373723 
L 167.581557 144.02147 
L 167.727367 142.234114 
L 167.785691 142.638552 
L 167.931501 144.351979 
L 167.960663 144.217166 
L 168.135635 142.26673 
L 168.193959 142.795109 
L 168.310606 144.306317 
L 168.36893 144.086702 
L 168.51474 142.284125 
L 168.573064 142.599413 
L 168.718874 144.310666 
L 168.777198 143.895355 
L 168.923008 142.310218 
L 168.95217 142.479821 
L 169.09798 144.271526 
L 169.156304 144.017122 
L 169.302114 142.32109 
L 169.360438 142.705958 
L 169.506248 144.25848 
L 169.53541 144.086702 
L 169.68122 142.349357 
L 169.739544 142.634203 
L 169.885354 144.245434 
L 169.914516 144.119318 
L 170.060326 142.381973 
L 170.11865 142.603762 
L 170.264459 144.228038 
L 170.322783 143.832298 
L 170.468593 142.401542 
L 170.497755 142.601587 
L 170.643565 144.208469 
L 170.701889 143.821426 
L 170.818537 142.421112 
L 170.876861 142.62768 
L 171.022671 144.188899 
L 171.080995 143.777938 
L 171.197643 142.42981 
L 171.255967 142.679866 
L 171.401777 144.167155 
L 171.430939 144.017122 
L 171.576749 142.434158 
L 171.635073 142.764667 
L 171.780883 144.13019 
L 171.810045 143.934494 
L 171.955855 142.451554 
L 171.985017 142.582018 
L 172.130827 144.132365 
L 172.18915 143.812728 
L 172.305798 142.488518 
L 172.364122 142.697261 
L 172.509932 144.112795 
L 172.539094 143.960587 
L 172.684904 142.481995 
L 172.743228 142.860341 
L 172.859876 144.097574 
L 172.9182 143.801856 
L 173.034848 142.516786 
L 173.093172 142.734226 
L 173.238982 144.073656 
L 173.268144 143.904053 
L 173.413954 142.516786 
L 173.443116 142.653773 
L 173.588926 144.069307 
L 173.64725 143.684438 
L 173.763898 142.529832 
L 173.79306 142.612459 
L 173.93887 144.051912 
L 173.997194 143.74967 
L 174.113841 142.551576 
L 174.172165 142.819027 
L 174.288813 144.027994 
L 174.347137 143.786635 
L 174.463785 142.57332 
L 174.522109 142.795109 
L 174.638757 144.00625 
L 174.697081 143.797507 
L 174.813729 142.59289 
L 174.872053 142.795109 
L 174.988701 143.991029 
L 175.047025 143.786635 
L 175.163673 142.603762 
L 175.221997 142.814678 
L 175.338645 143.982331 
L 175.396969 143.756194 
L 175.513617 142.60811 
L 175.571941 142.855992 
L 175.688589 143.977982 
L 175.746913 143.704008 
L 175.863561 142.614634 
L 175.921885 142.91905 
L 176.038532 143.969285 
L 176.067694 143.880134 
L 176.213504 142.625506 
L 176.271828 143.006026 
L 176.388476 143.949715 
L 176.417638 143.810554 
L 176.563448 142.653773 
L 176.59261 142.821202 
L 176.709258 143.927971 
L 176.767582 143.712706 
L 176.88423 142.653773 
L 176.942554 142.936445 
L 177.059202 143.930146 
L 177.088364 143.832298 
L 177.234174 142.668994 
L 177.263336 142.808155 
L 177.379984 143.89753 
L 177.438308 143.712706 
L 177.554956 142.677691 
L 177.61328 142.951666 
L 177.729928 143.906227 
L 177.75909 143.799682 
L 177.9049 142.699435 
L 177.934062 142.855992 
L 178.050709 143.886658 
L 178.109033 143.645299 
L 178.225681 142.697261 
L 178.254843 142.795109 
L 178.400653 143.869262 
L 178.429815 143.712706 
L 178.546463 142.712482 
L 178.604787 142.971235 
L 178.721435 143.869262 
L 178.750597 143.754019 
L 178.867245 142.7364 
L 178.925569 142.923398 
L 179.042217 143.860565 
L 179.071379 143.777938 
L 179.217189 142.745098 
L 179.246351 142.897306 
L 179.362999 143.847518 
L 179.421323 143.569195 
L 179.537971 142.749446 
L 179.567133 142.886434 
L 179.683781 143.834472 
L 179.742105 143.577893 
L 179.858753 142.758144 
L 179.887914 142.890782 
L 180.004562 143.825774 
L 180.062886 143.567021 
L 180.179534 142.769016 
L 180.208696 142.906003 
L 180.325344 143.817077 
L 180.383668 143.543102 
L 180.500316 142.784237 
L 180.529478 142.93427 
L 180.646126 143.808379 
L 180.675288 143.725752 
L 180.791936 142.795109 
L 180.85026 142.977758 
L 180.966908 143.795333 
L 180.99607 143.686613 
L 181.112718 142.792934 
L 181.171042 143.034293 
L 181.28769 143.775763 
L 181.316852 143.630078 
L 181.4335 142.799458 
L 181.462662 142.886434 
L 181.57931 143.771414 
L 181.637634 143.556149 
L 181.754282 142.819027 
L 181.783444 142.956014 
L 181.900091 143.76924 
L 181.929253 143.682264 
L 182.045901 142.821202 
L 182.104225 143.047339 
L 182.220873 143.745322 
L 182.250035 143.597462 
L 182.366683 142.827725 
L 182.395845 142.93427 
L 182.512493 143.751845 
L 182.570817 143.484394 
L 182.658303 142.842946 
L 182.716627 143.040816 
L 182.833275 143.727926 
L 182.862437 143.588765 
L 182.979085 142.84512 
L 183.008247 142.95384 
L 183.124895 143.73445 
L 183.183219 143.453952 
L 183.270705 142.853818 
L 183.329029 143.08213 
L 183.416515 143.712706 
L 183.474839 143.536579 
L 183.591487 142.873387 
L 183.620649 143.010374 
L 183.737297 143.712706 
L 183.766458 143.595288 
L 183.883106 142.866864 
L 183.912268 142.962538 
L 184.028916 143.710531 
L 184.08724 143.434382 
L 184.174726 142.875562 
L 184.23305 143.119094 
L 184.320536 143.697485 
L 184.37886 143.484394 
L 184.466346 142.890782 
L 184.52467 143.077781 
L 184.612156 143.68009 
L 184.67048 143.51701 
L 184.787128 142.908178 
L 184.81629 143.051688 
L 184.932938 143.671392 
L 184.9621 143.536579 
L 185.078748 142.908178 
L 185.10791 143.036467 
L 185.224558 143.669218 
L 185.25372 143.545277 
L 185.370368 142.912526 
L 185.39953 143.032118 
L 185.516178 143.662694 
L 185.54534 143.547451 
L 185.661988 142.91905 
L 185.691149 143.034293 
L 185.807797 143.656171 
L 185.836959 143.538754 
L 185.953607 142.927747 
L 185.982769 143.047339 
L 186.099417 143.645299 
L 186.128579 143.523533 
L 186.245227 142.938619 
L 186.274389 143.066909 
L 186.391037 143.632253 
L 186.420199 143.49744 
L 186.507685 142.945142 
L 186.566009 143.095176 
L 186.653495 143.634427 
L 186.711819 143.464824 
L 186.799305 142.942968 
L 186.857629 143.134315 
L 186.945115 143.634427 
L 187.003439 143.421336 
L 187.090925 142.945142 
L 187.120087 143.0082 
L 187.236735 143.627904 
L 187.265897 143.549626 
L 187.382545 142.95384 
L 187.411707 143.049514 
L 187.528355 143.612683 
L 187.557517 143.501789 
L 187.674164 142.975584 
L 187.703326 143.106048 
L 187.790812 143.608334 
L 187.849136 143.438731 
L 187.936622 142.964712 
L 187.994946 143.175629 
L 188.082432 143.610509 
L 188.111594 143.536579 
L 188.228242 142.975584 
L 188.257404 143.071258 
L 188.374052 143.588765 
L 188.403214 143.469173 
L 188.4907 142.982107 
L 188.549024 143.149536 
L 188.63651 143.597462 
L 188.694834 143.382197 
L 188.78232 142.984282 
L 188.811482 143.066909 
L 188.92813 143.580067 
L 188.957292 143.469173 
L 189.044778 142.995154 
L 189.103102 143.153885 
L 189.190588 143.584416 
L 189.21975 143.527882 
L 189.336398 142.997328 
L 189.36556 143.086478 
L 189.482208 143.562672 
L 189.51137 143.440906 
L 189.598855 143.001677 
L 189.657179 143.188675 
L 189.744665 143.573544 
L 189.773827 143.495266 
L 189.890475 143.019072 
L 189.919637 143.129966 
L 190.007123 143.564846 
L 190.065447 143.386546 
L 190.152933 143.010374 
L 190.182095 143.088653 
L 190.298743 143.547451 
L 190.327905 143.434382 
L 190.415391 143.016898 
L 190.473715 143.201722 
L 190.561201 143.553974 
L 190.590363 143.469173 
L 190.677849 143.029944 
L 190.736173 143.164757 
L 190.823659 143.5518 
L 190.852821 143.493091 
L 190.969469 143.034293 
L 190.998631 143.134315 
L 191.086117 143.543102 
L 191.144441 143.373499 
L 191.231927 143.034293 
L 191.261089 143.114746 
L 191.348575 143.534405 
L 191.406899 143.395243 
L 191.494384 143.036467 
L 191.523546 143.101699 
L 191.640194 143.519184 
L 191.669356 143.410464 
L 191.756842 143.040816 
L 191.786004 143.095176 
L 191.902652 143.519184 
L 191.931814 143.419162 
L 192.0193 143.045165 
L 192.077624 143.229989 
L 192.16511 143.51701 
L 192.194272 143.421336 
L 192.281758 143.051688 
L 192.340082 143.227814 
L 192.427568 143.512661 
L 192.45673 143.419162 
L 192.544216 143.056037 
L 192.60254 143.232163 
L 192.690026 143.506138 
L 192.719188 143.410464 
L 192.806674 143.060386 
L 192.835836 143.108222 
L 192.952484 143.499614 
L 192.981646 143.399592 
L 193.069132 143.064734 
L 193.098294 143.121269 
L 193.18578 143.49744 
L 193.244104 143.382197 
L 193.33159 143.069083 
L 193.360752 143.13649 
L 193.448237 143.49744 
L 193.506561 143.360453 
L 193.594047 143.077781 
L 193.623209 143.158234 
L 193.710695 143.49744 
L 193.769019 143.33436 
L 193.856505 143.088653 
L 193.885667 143.184326 
L 193.973153 143.493091 
L 194.002315 143.434382 
L 194.089801 143.086478 
L 194.148125 143.214768 
L 194.235611 143.484394 
L 194.264773 143.406115 
L 194.352259 143.086478 
L 194.410583 143.251733 
L 194.468907 143.475696 
L 194.527231 143.36915 
L 194.614717 143.093002 
L 194.643879 143.162582 
L 194.731365 143.480045 
L 194.789689 143.327837 
L 194.877175 143.108222 
L 194.906337 143.201722 
L 194.993823 143.473522 
L 195.022985 143.40829 
L 195.110471 143.099525 
L 195.168795 143.249558 
L 195.227119 143.464824 
L 195.285443 143.362627 
L 195.372928 143.106048 
L 195.40209 143.175629 
L 195.489576 143.469173 
L 195.518738 143.425685 
L 195.606224 143.110397 
L 195.664548 143.22564 
L 195.752034 143.458301 
L 195.781196 143.377848 
L 195.868682 143.110397 
L 195.897844 143.166931 
L 195.98533 143.460475 
L 196.043654 143.321314 
L 196.101978 143.121269 
L 196.160302 143.219117 
L 196.247788 143.451778 
L 196.27695 143.380022 
L 196.364436 143.11692 
L 196.393598 143.169106 
L 196.481084 143.451778 
L 196.539408 143.316965 
L 196.597732 143.125618 
L 196.656056 143.227814 
L 196.743542 143.440906 
L 196.772704 143.366976 
L 196.86019 143.125618 
L 196.889352 143.184326 
L 196.976838 143.445254 
L 197.006 143.403941 
L 197.093486 143.129966 
L 197.15181 143.249558 
L 197.210134 143.436557 
L 197.268457 143.343058 
L 197.355943 143.138664 
L 197.385105 143.210419 
L 197.472591 143.436557 
L 197.501753 143.377848 
L 197.589239 143.134315 
L 197.618401 143.182152 
L 197.705887 143.434382 
L 197.764211 143.306093 
L 197.822535 143.140838 
L 197.880859 143.249558 
L 197.939183 143.425685 
L 197.997507 143.336534 
L 198.084993 143.149536 
L 198.114155 143.221291 
L 198.201641 143.42351 
L 198.230803 143.360453 
L 198.318289 143.145187 
L 198.347451 143.199547 
L 198.434937 143.425685 
L 198.464099 143.380022 
L 198.551585 143.147362 
L 198.609909 143.275651 
L 198.668233 143.421336 
L 198.726557 143.303918 
L 198.784881 143.15171 
L 198.843205 143.256082 
L 198.901529 143.414813 
L 198.959853 143.323488 
L 199.047339 143.166931 
L 199.076501 143.240861 
L 199.163987 143.406115 
L 199.193149 143.336534 
L 199.280634 143.164757 
L 199.309796 143.227814 
L 199.397282 143.40829 
L 199.426444 143.347406 
L 199.51393 143.162582 
L 199.543092 143.219117 
L 199.630578 143.406115 
L 199.65974 143.35393 
L 199.747226 143.164757 
L 199.776388 143.214768 
L 199.863874 143.406115 
L 199.893036 143.358278 
L 199.980522 143.166931 
L 200.009684 143.210419 
L 200.09717 143.403941 
L 200.126332 143.360453 
L 200.213818 143.169106 
L 200.24298 143.210419 
L 200.330466 143.401766 
L 200.359628 143.360453 
L 200.447114 143.17128 
L 200.476276 143.210419 
L 200.563762 143.397418 
L 200.592924 143.358278 
L 200.68041 143.173454 
L 200.709572 143.214768 
L 200.797058 143.395243 
L 200.82622 143.35393 
L 200.913706 143.175629 
L 200.942868 143.219117 
L 201.030354 143.390894 
L 201.059516 143.349581 
L 201.147001 143.179978 
L 201.176163 143.223466 
L 201.263649 143.38872 
L 201.292811 143.343058 
L 201.380297 143.184326 
L 201.409459 143.232163 
L 201.496945 143.384371 
L 201.526107 143.332186 
L 201.613593 143.188675 
L 201.642755 143.240861 
L 201.730241 143.377848 
L 201.759403 143.323488 
L 201.846889 143.195198 
L 201.876051 143.253907 
L 201.963537 143.36915 
L 201.992699 143.310442 
L 202.051023 143.19085 
L 202.109347 143.266954 
L 202.167671 143.380022 
L 202.225995 143.295221 
L 202.284319 143.19085 
L 202.342643 143.282174 
L 202.400967 143.377848 
L 202.459291 143.28 
L 202.517615 143.193024 
L 202.546777 143.227814 
L 202.634263 143.373499 
L 202.663425 143.33436 
L 202.750911 143.199547 
L 202.780073 143.24521 
L 202.867559 143.366976 
L 202.896721 143.316965 
L 202.984207 143.208245 
L 203.013369 143.262605 
L 203.071692 143.36915 
L 203.130016 143.297395 
L 203.18834 143.199547 
L 203.246664 143.282174 
L 203.304988 143.36915 
L 203.363312 143.275651 
L 203.421636 143.203896 
L 203.450798 143.238686 
L 203.538284 143.362627 
L 203.567446 143.319139 
L 203.654932 143.212594 
L 203.684094 143.26043 
L 203.77158 143.351755 
L 203.800742 143.297395 
L 203.859066 143.20607 
L 203.91739 143.284349 
L 203.975714 143.362627 
L 204.034038 143.273477 
L 204.092362 143.210419 
L 204.121524 143.247384 
L 204.20901 143.35393 
L 204.238172 143.310442 
L 204.325658 143.221291 
L 204.35482 143.271302 
L 204.413144 143.358278 
L 204.471468 143.286523 
L 204.529792 143.212594 
L 204.588116 143.295221 
L 204.64644 143.35393 
L 204.675602 143.316965 
L 204.763088 143.221291 
L 204.79225 143.264779 
L 204.879736 143.340883 
L 204.908898 143.290872 
L 204.967222 143.216942 
L 205.025545 143.290872 
L 205.083869 143.349581 
L 205.113031 143.319139 
L 205.200517 143.223466 
L 205.229679 143.262605 
L 205.317165 143.336534 
L 205.346327 143.290872 
L 205.404651 143.219117 
L 205.462975 143.290872 
L 205.521299 143.347406 
L 205.550461 143.31479 
L 205.637947 143.227814 
L 205.667109 143.266954 
L 205.754595 143.332186 
L 205.783757 143.286523 
L 205.842081 143.223466 
L 205.900405 143.295221 
L 205.958729 143.340883 
L 205.987891 143.308267 
L 206.075377 143.234338 
L 206.104539 143.275651 
L 206.162863 143.343058 
L 206.221187 143.277826 
L 206.279511 143.227814 
L 206.337835 143.303918 
L 206.396159 143.33436 
L 206.425321 143.297395 
L 206.512807 143.243035 
L 206.541969 143.286523 
L 206.600293 143.338709 
L 206.658617 143.266954 
L 206.716941 143.234338 
L 206.746103 143.269128 
L 206.833589 143.323488 
L 206.862751 143.284349 
L 206.921074 143.232163 
L 206.979398 143.29957 
L 207.037722 143.330011 
L 207.066884 143.297395 
L 207.15437 143.247384 
L 207.183532 143.286523 
L 207.241856 143.33436 
L 207.30018 143.266954 
L 207.358504 143.240861 
L 207.387666 143.273477 
L 207.475152 143.319139 
L 207.504314 143.28 
L 207.562638 143.236512 
L 207.620962 143.303918 
L 207.679286 143.323488 
L 207.708448 143.290872 
L 207.795934 143.253907 
L 207.825096 143.293046 
L 207.88342 143.327837 
L 207.941744 143.26043 
L 208.02923 143.284349 
L 208.116716 143.306093 
L 208.145878 143.269128 
L 208.233364 143.275651 
L 208.262526 143.310442 
L 208.350012 143.277826 
L 208.437498 143.269128 
L 208.46666 143.303918 
L 208.554146 143.284349 
L 208.641632 143.262605 
L 208.670794 143.297395 
L 208.787442 143.256082 
L 208.904089 143.319139 
L 364.774899 143.343058 
L 364.862385 143.506138 
L 364.920709 142.97341 
L 364.979033 143.627904 
L 365.008195 142.742923 
L 365.066519 144.22369 
L 365.095681 143.247384 
L 365.124843 141.857942 
L 365.154005 143.997552 
L 365.183167 145.115194 
L 365.270652 147.170002 
L 365.328976 136.77637 
L 365.3873 152.716896 
L 365.416462 136.874218 
L 365.445624 131.61217 
L 365.53311 114.321341 
L 365.591434 190.364458 
L 365.649758 76.415026 
L 365.67892 197.607384 
L 365.708082 223.748021 
L 365.836896 -1 
M 365.868487 -1 
L 365.883054 216.772546 
L 365.900313 -1 
M 366.085433 -1 
L 366.087188 108.137347 
L 366.088351 -1 
" style="fill:none;stroke:#ff7f0e;stroke-linecap:square;stroke-width:1.5;"/>
   </g>
   <g id="patch_3">
    <path d="M 54 252 
L 54 34.56 
" style="fill:none;stroke:#000000;stroke-linecap:square;stroke-linejoin:miter;stroke-width:0.8;"/>
   </g>
   <g id="patch_4">
    <path d="M 388.8 252 
L 388.8 34.56 
" style="fill:none;stroke:#000000;stroke-linecap:square;stroke-linejoin:miter;stroke-width:0.8;"/>
   </g>
   <g id="patch_5">
    <path d="M 54 252 
L 388.8 252 
" style="fill:none;stroke:#000000;stroke-linecap:square;stroke-linejoin:miter;stroke-width:0.8;"/>
   </g>
   <g id="patch_6">
    <path d="M 54 34.56 
L 388.8 34.56 
" style="fill:none;stroke:#000000;stroke-linecap:square;stroke-linejoin:miter;stroke-width:0.8;"/>
   </g>
   <g id="legend_1">
    <g id="patch_7">
     <path d="M 198.55 72.76 
L 244.25 72.76 
Q 246.25 72.76 246.25 70.76 
L 246.25 41.56 
Q 246.25 39.56 244.25 39.56 
L 198.55 39.56 
Q 196.55 39.56 196.55 41.56 
L 196.55 70.76 
Q 196.55 72.76 198.55 72.76 
z
" style="fill:#ffffff;opacity:0.8;stroke:#cccccc;stroke-linejoin:miter;"/>
    </g>
    <g id="line2d_15">
     <path d="M 200.55 47.76 
L 220.55 47.76 
" style="fill:none;stroke:#1f77b4;stroke-linecap:square;stroke-width:1.5;"/>
    </g>
    <g id="line2d_16"/>
    <g id="text_15">
     <!-- $|0\rangle$ -->
     <defs>
      <path d="M 21 76.421875 
L 21 -23.578125 
L 12.703125 -23.578125 
L 12.703125 76.421875 
z
" id="DejaVuSans-7c"/>
      <path d="M 30.078125 31.34375 
L 16.3125 -13.1875 
L 8.015625 -13.1875 
L 21.78125 31.34375 
L 8.015625 75.875 
L 16.3125 75.875 
z
" id="DejaVuSans-27e9"/>
     </defs>
     <g transform="translate(228.55 51.26)scale(0.1 -0.1)">
      <use transform="translate(0 0.578125)" xlink:href="#DejaVuSans-7c"/>
      <use transform="translate(33.691406 0.578125)" xlink:href="#DejaVuSans-30"/>
      <use transform="translate(97.314453 0.578125)" xlink:href="#DejaVuSans-27e9"/>
     </g>
    </g>
    <g id="line2d_17">
     <path d="M 200.55 62.86 
L 220.55 62.86 
" style="fill:none;stroke:#ff7f0e;stroke-linecap:square;stroke-width:1.5;"/>
    </g>
    <g id="line2d_18"/>
    <g id="text_16">
     <!-- $|1\rangle$ -->
     <g transform="translate(228.55 66.36)scale(0.1 -0.1)">
      <use transform="translate(0 0.578125)" xlink:href="#DejaVuSans-7c"/>
      <use transform="translate(33.691406 0.578125)" xlink:href="#DejaVuSans-31"/>
      <use transform="translate(97.314453 0.578125)" xlink:href="#DejaVuSans-27e9"/>
     </g>
    </g>
   </g>
  </g>
 </g>
 <defs>
  <clipPath id="p11262f2a80">
   <rect height="217.44" width="334.8" x="54" y="34.56"/>
  </clipPath>
 </defs>
</svg>
